<svg width="1920" height="434" viewBox="0 0 1920 434" fill="none" xmlns="http://www.w3.org/2000/svg">
<g clip-path="url(#clip0_2009_803)">
<g clip-path="url(#clip1_2009_803)">
<ellipse cx="959.5" cy="374" rx="1168.5" ry="361" fill="url(#paint0_linear_2009_803)"/>
<circle cx="960.5" cy="417.5" r="230.5" fill="url(#paint1_linear_2009_803)"/>
</g>
<g filter="url(#filter0_b_2009_803)">
<path d="M2120.5 361C2120.5 407.308 2090.1 452.838 2031.75 495.461C1973.56 537.967 1888.87 576.56 1783.54 609.1C1572.98 674.151 1281.64 714.5 959.5 714.5C637.364 714.5 346.02 674.151 135.46 609.1C30.1338 576.56 -54.5557 537.967 -112.75 495.461C-171.103 452.838 -201.5 407.308 -201.5 361C-201.5 314.692 -171.103 269.162 -112.75 226.539C-54.5557 184.033 30.1338 145.44 135.46 112.9C346.02 47.8491 637.364 7.5 959.5 7.5C1281.64 7.5 1572.98 47.8491 1783.54 112.9C1888.87 145.44 1973.56 184.033 2031.75 226.539C2090.1 269.162 2120.5 314.692 2120.5 361Z" stroke="white" stroke-opacity="0.12" stroke-width="15"/>
</g>
<g clip-path="url(#clip2_2009_803)">
<path d="M871.369 65.9142H970.5V130.691H871.369V65.9142Z" fill="#E86B6B"/>
<path d="M919.153 65.9142H970.5V99.4526H919.153V65.9142Z" fill="#536EE5"/>
<path d="M1946 390.631H-55V413.957L-15.3856 429.631H1906.39L1946 413.957V390.631Z" fill="#ABBFD8"/>
<path d="M1906.61 433.631H-15.6144C-16.9668 433.631 -18.4544 433.406 -19.5362 432.954L-59.1601 417.087C-60.0376 416.735 -60.7525 416.271 -61.2461 415.735C-61.7397 415.199 -61.9981 414.606 -62 414.004V390.391C-62 388.286 -59.0248 386.631 -55.2383 386.631H1946.24C1950.02 386.631 1953 388.286 1953 390.391V414.004C1953 415.207 1951.92 416.335 1950.16 417.087L1910.54 432.954C1909.45 433.406 1908.1 433.631 1906.61 433.631ZM-13.4507 426.111H1904.45L1939.48 412.049V394.151H-48.4765V412.049L-13.4507 426.111Z" fill="black"/>
<path d="M443.161 429.494H1497.84V823.051H443.161V429.494Z" fill="#D4DBE5"/>
<path d="M443.161 429.494H1497.84V460.436H443.161V429.494Z" fill="#ABBFD8"/>
<path d="M1497.84 826.835H443.161C441.083 826.835 439.451 825.203 439.451 823.125V429.494C439.451 427.417 441.083 425.784 443.161 425.784H1497.84C1499.92 425.784 1501.55 427.417 1501.55 429.494V823.051C1501.55 825.129 1499.92 826.835 1497.84 826.835ZM446.871 819.415H1494.13V433.204H446.871V819.415Z" fill="black"/>
<path d="M664.87 406.27H1276.2V898.735H664.87V406.27Z" fill="#ABBFD8"/>
<path d="M664.87 406.27H1276.2V440.55H664.87V406.27ZM970.5 629.834L900.158 666.934V677.693H1040.84V666.934L970.5 629.834Z" fill="#8FB2D8"/>
<path d="M1464.82 330.289H1497.84V390.539H1464.82V330.289ZM443.161 330.289H476.18V390.539H443.161V330.289Z" fill="#ABBFD8"/>
<path d="M421.42 326.579H1519.58V333.999H421.42V326.579Z" fill="black"/>
<path d="M664.87 266.699H1276.2V330.363H664.87V266.699Z" fill="#CFD7E4"/>
<path d="M650.327 262.989H1290.6V270.409H650.327V262.989Z" fill="black"/>
<path d="M1276.13 333.999H664.87C662.793 333.999 661.16 332.366 661.16 330.289V266.625C661.16 264.548 662.793 262.915 664.87 262.915H1276.2C1278.28 262.915 1279.91 264.548 1279.91 266.625V330.289C1279.89 331.279 1279.49 332.223 1278.78 332.917C1278.07 333.61 1277.12 333.999 1276.13 333.999ZM668.58 326.579H1272.49V270.335H668.58V326.579Z" fill="black"/>
<path d="M970.5 213.424L626.657 346.316V359.969H1314.34V346.316L970.5 213.424Z" fill="#ABBFD8"/>
<path d="M1314.34 363.679H626.657C624.58 363.679 622.947 362.046 622.947 359.969V346.242C622.947 344.684 623.912 343.348 625.322 342.754L969.164 209.936C970.055 209.64 970.945 209.64 971.836 209.936L1315.68 342.754C1317.09 343.274 1318.05 344.684 1318.05 346.242V359.969C1318.05 362.046 1316.42 363.679 1314.34 363.679ZM630.367 356.259H1310.63V348.839L970.5 217.431L630.367 348.839V356.259Z" fill="black"/>
<path d="M720.594 336.076L970.5 239.542L1220.41 336.076H720.594Z" fill="#D4DBE5"/>
<path d="M650.327 359.969H1290.67V406.27H650.327V359.969Z" fill="#CFD7E4"/>
<path d="M650.327 359.969H1290.67V378.222H650.327V359.969Z" fill="#ABBFD8"/>
<path d="M1497.84 394.249H1464.82C1462.74 394.249 1461.11 392.617 1461.11 390.539V330.289C1461.11 328.211 1462.74 326.579 1464.82 326.579H1497.84C1499.92 326.579 1501.55 328.211 1501.55 330.289V390.539C1501.55 392.617 1499.92 394.249 1497.84 394.249ZM1468.53 386.829H1494.13V333.999H1468.53V386.829ZM1440.33 342.754H1447.75V390.539H1440.33V342.754ZM1418.07 342.754H1425.49V390.539H1418.07V342.754ZM1395.89 342.754H1403.31V390.539H1395.89V342.754ZM1373.7 342.754H1381.12V390.539H1373.7V342.754ZM1351.52 342.754H1358.94V390.539H1351.52V342.754ZM1329.33 342.754H1336.75V390.539H1329.33V342.754ZM1307.15 355.739H1314.57V390.613H1307.15V355.739ZM476.18 394.249H443.161C441.083 394.249 439.451 392.617 439.451 390.539V330.289C439.451 328.211 441.083 326.579 443.161 326.579H476.18C478.257 326.579 479.89 328.211 479.89 330.289V390.539C479.89 392.617 478.257 394.249 476.18 394.249ZM446.871 386.829H472.47V333.999H446.871V386.829ZM493.246 342.754H500.666V390.539H493.246V342.754ZM515.506 342.754H522.926V390.539H515.506V342.754ZM537.691 342.754H545.111V390.539H537.691V342.754ZM559.877 342.754H567.297V390.539H559.877V342.754ZM582.063 342.754H589.483V390.539H582.063V342.754ZM604.249 342.754H611.669V390.539H604.249V342.754ZM626.435 355.739H633.855V390.613H626.435V355.739Z" fill="black"/>
<path d="M744.19 427.342C744.19 438.918 734.767 448.267 723.191 448.267C720.075 448.267 717.107 447.599 714.51 446.338C707.98 443.37 703.306 436.988 702.49 429.494H676.891C676.528 433.096 675.228 436.54 673.118 439.483C671.009 442.425 668.165 444.763 664.87 446.263C661.683 447.738 658.176 448.386 654.673 448.148C651.169 447.909 647.783 446.792 644.825 444.899C641.867 443.006 639.434 440.399 637.75 437.317C636.066 434.236 635.186 430.78 635.19 427.268C635.19 415.693 644.539 406.27 656.115 406.27H723.191C734.692 406.27 744.19 415.693 744.19 427.342ZM736.102 846.35V899.329H643.204V846.35L651.143 837.817L664.796 823.125H714.436L728.089 837.817L736.102 846.35ZM908.469 846.35V899.329H815.57V846.35L823.51 837.817L837.163 823.125H886.802L900.529 837.817L908.469 846.35ZM1125.43 846.35V899.329H1032.46V846.35L1040.47 837.817L1054.12 823.125H1103.76L1117.42 837.817L1125.43 846.35ZM1305.88 427.342C1305.88 438.918 1296.46 448.267 1284.89 448.267C1281.77 448.267 1278.8 447.599 1276.2 446.338C1269.67 443.37 1265 436.988 1264.18 429.494H1238.58C1238.22 433.096 1236.92 436.54 1234.81 439.483C1232.7 442.425 1229.86 444.763 1226.56 446.263C1223.38 447.738 1219.87 448.386 1216.37 448.148C1212.86 447.909 1209.48 446.792 1206.52 444.899C1203.56 443.006 1201.13 440.399 1199.44 437.317C1197.76 434.236 1196.88 430.78 1196.88 427.268C1196.88 415.693 1206.23 406.27 1217.81 406.27H1284.89C1296.46 406.27 1305.88 415.693 1305.88 427.342ZM1297.8 846.35V899.329H1204.9V846.35L1212.84 837.817L1226.49 823.125H1276.13L1289.86 837.817L1297.8 846.35Z" fill="#8698A6"/>
<path d="M714.436 446.338V823.051H664.796V446.263C668.082 444.751 670.918 442.41 673.026 439.47C675.133 436.53 676.44 433.092 676.816 429.494H702.415C703.232 436.988 707.98 443.37 714.436 446.338ZM1264.18 429.494H1238.58C1238.22 433.096 1236.92 436.54 1234.81 439.483C1232.7 442.425 1229.86 444.763 1226.56 446.263V823.051H1276.2V446.338C1269.67 443.37 1264.93 436.988 1264.18 429.494Z" fill="#BDC9D7"/>
<path d="M815.57 903.039H736.102C734.025 903.039 732.392 901.406 732.392 899.329V864.381C732.392 862.303 734.025 860.671 736.102 860.671H815.57C817.648 860.671 819.28 862.303 819.28 864.381V899.329C819.28 901.406 817.648 903.039 815.57 903.039ZM739.812 895.619H811.86V868.091H739.812V895.619ZM1032.46 903.039H908.469C906.391 903.039 904.759 901.406 904.759 899.329V864.381C904.759 862.303 906.391 860.671 908.469 860.671H1032.46C1034.53 860.671 1036.17 862.303 1036.17 864.381V899.329C1036.17 901.406 1034.53 903.039 1032.46 903.039ZM912.179 895.619H1028.75V868.091H912.179V895.619ZM1204.9 903.039H1125.43C1123.35 903.039 1121.72 901.406 1121.72 899.329V864.381C1121.72 862.303 1123.35 860.671 1125.43 860.671H1204.9C1206.98 860.671 1208.61 862.303 1208.61 864.381V899.329C1208.61 901.406 1206.98 903.039 1204.9 903.039ZM1129.14 895.619H1201.19V868.091H1129.14V895.619ZM1220.41 339.786H720.594C718.814 339.786 717.255 338.525 716.959 336.744C716.662 334.963 717.626 333.257 719.259 332.589L969.164 236.055C970.055 235.758 970.945 235.758 971.836 236.055L1221.82 332.589C1223.45 333.257 1224.49 334.963 1224.12 336.744C1223.74 338.525 1222.26 339.786 1220.41 339.786ZM740.48 332.366H1200.52L970.5 243.475L740.48 332.366ZM1290.67 410.054H650.327C648.249 410.054 646.617 408.421 646.617 406.344V360.043C646.617 357.965 648.249 356.333 650.327 356.333H1290.6C1292.68 356.333 1294.31 357.965 1294.31 360.043V406.344C1294.38 408.347 1292.68 410.054 1290.67 410.054ZM654.037 402.634H1286.89V363.753H654.037V402.634Z" fill="black"/>
<path d="M1333.04 994.972H607.959C605.881 994.972 604.249 993.34 604.249 991.262V899.329C604.249 897.251 605.881 895.619 607.959 895.619H1333.04C1335.12 895.619 1336.75 897.251 1336.75 899.329V991.262C1336.75 993.34 1335.12 994.972 1333.04 994.972ZM611.669 987.552H1329.33V903.039H611.669V987.552ZM723.117 451.977C719.481 451.977 716.068 451.235 712.878 449.751C709.54 448.176 706.591 445.883 704.244 443.035C701.896 440.187 700.208 436.855 699.299 433.278H679.933C678.152 440.476 673.181 446.634 666.354 449.751C663.164 451.235 659.676 452.051 656.04 452.051C649.497 452.051 643.222 449.452 638.595 444.825C633.968 440.198 631.369 433.923 631.369 427.38C631.369 420.836 633.968 414.561 638.595 409.934C643.222 405.307 649.497 402.708 656.04 402.708H723.117C736.77 402.708 747.826 413.764 747.826 427.417C747.9 440.921 736.77 451.977 723.117 451.977ZM676.816 425.784H702.415C703.338 425.78 704.23 426.119 704.916 426.737C705.602 427.354 706.033 428.205 706.125 429.123C706.793 435.133 710.577 440.476 715.994 442.999C718.338 444.063 720.891 444.589 723.465 444.539C726.039 444.488 728.569 443.861 730.869 442.705C733.169 441.549 735.182 439.892 736.758 437.857C738.334 435.821 739.435 433.459 739.979 430.942C740.523 428.426 740.497 425.819 739.902 423.315C739.308 420.81 738.16 418.47 736.542 416.466C734.925 414.463 732.88 412.847 730.557 411.738C728.234 410.628 725.692 410.053 723.117 410.054H656.04C646.543 410.054 638.826 417.845 638.826 427.342C638.826 436.84 646.543 444.557 656.04 444.557C658.563 444.557 661.012 444.037 663.238 442.924C668.729 440.402 672.513 435.133 673.181 429.123C673.329 427.268 674.961 425.784 676.816 425.784Z" fill="black"/>
<path d="M736.102 903.039H643.204C641.126 903.039 639.494 901.406 639.494 899.329V846.35C639.494 845.385 639.865 844.495 640.458 843.827L662.051 820.528C662.718 819.786 663.757 819.341 664.796 819.341H714.436C715.475 819.341 716.439 819.786 717.181 820.528L738.848 843.827C739.515 844.495 739.812 845.385 739.812 846.35V899.329C739.812 901.406 738.106 903.039 736.102 903.039ZM646.914 895.619H732.392V847.834L712.803 826.835H666.428L646.914 847.834V895.619ZM908.469 903.039H815.57C813.493 903.039 811.86 901.406 811.86 899.329V846.35C811.86 845.385 812.231 844.495 812.825 843.827L834.417 820.528C835.085 819.786 836.124 819.341 837.163 819.341H886.802C887.841 819.341 888.806 819.786 889.548 820.528L911.214 843.827C911.882 844.495 912.179 845.385 912.179 846.35V899.329C912.179 901.406 910.546 903.039 908.469 903.039ZM819.28 895.619H904.759V847.834L885.17 826.835H838.795L819.28 847.834V895.619ZM1125.43 903.039H1032.46C1030.38 903.039 1028.75 901.406 1028.75 899.329V846.35C1028.75 845.385 1029.12 844.495 1029.71 843.827L1051.3 820.528C1051.97 819.786 1053.01 819.341 1054.05 819.341H1103.69C1104.73 819.341 1105.69 819.786 1106.43 820.528L1128.1 843.827C1128.77 844.495 1129.07 845.385 1129.07 846.35V899.329C1129.14 901.406 1127.43 903.039 1125.43 903.039ZM1036.17 895.619H1121.65V847.834L1102.06 826.835H1055.68L1036.17 847.834V895.619ZM1284.89 451.977C1281.25 451.977 1277.84 451.235 1274.65 449.751C1271.31 448.176 1268.36 445.883 1266.01 443.035C1263.66 440.187 1261.98 436.855 1261.07 433.278H1241.7C1239.92 440.476 1234.95 446.634 1228.12 449.751C1224.93 451.235 1221.44 452.051 1217.81 452.051C1211.27 452.051 1204.99 449.452 1200.36 444.825C1195.74 440.198 1193.14 433.923 1193.14 427.38C1193.14 420.836 1195.74 414.561 1200.36 409.934C1204.99 405.307 1211.27 402.708 1217.81 402.708H1284.89C1298.54 402.708 1309.59 413.764 1309.59 427.417C1309.59 440.921 1298.46 451.977 1284.89 451.977ZM1238.58 425.784H1264.18C1265.11 425.78 1266 426.119 1266.68 426.737C1267.37 427.354 1267.8 428.205 1267.89 429.123C1268.56 435.133 1272.35 440.476 1277.76 442.999C1280.11 444.063 1282.66 444.589 1285.23 444.539C1287.81 444.488 1290.34 443.861 1292.64 442.705C1294.94 441.549 1296.95 439.892 1298.53 437.857C1300.1 435.821 1301.2 433.459 1301.75 430.942C1302.29 428.426 1302.27 425.819 1301.67 423.315C1301.08 420.81 1299.93 418.47 1298.31 416.466C1296.69 414.463 1294.65 412.847 1292.33 411.738C1290 410.628 1287.46 410.053 1284.89 410.054H1217.81C1208.31 410.054 1200.59 417.845 1200.59 427.342C1200.59 436.84 1208.31 444.557 1217.81 444.557C1220.33 444.557 1222.78 444.037 1225.01 442.924C1230.5 440.402 1234.28 435.133 1234.95 429.123C1235.02 428.211 1235.44 427.361 1236.11 426.742C1236.79 426.123 1237.67 425.781 1238.58 425.784ZM1297.8 903.039H1204.9C1202.82 903.039 1201.19 901.406 1201.19 899.329V846.35C1201.19 845.385 1201.56 844.495 1202.15 843.827L1223.74 820.528C1224.41 819.786 1225.45 819.341 1226.49 819.341H1276.13C1277.17 819.341 1278.13 819.786 1278.88 820.528L1300.54 843.827C1301.21 844.495 1301.51 845.385 1301.51 846.35V899.329C1301.51 901.406 1299.87 903.039 1297.8 903.039ZM1208.61 895.619H1294.09V847.834L1274.5 826.835H1228.12L1208.61 847.834V895.619ZM809.041 605.645H742.261C740.183 605.645 738.551 604.013 738.551 601.935V499.02C738.551 496.942 740.183 495.31 742.261 495.31H809.041C811.118 495.31 812.751 496.942 812.751 499.02V601.935C812.751 603.938 811.044 605.645 809.041 605.645ZM745.971 598.225H805.331V502.73H745.971V598.225ZM1003.89 605.645H937.11C935.032 605.645 933.4 604.013 933.4 601.935V499.02C933.4 496.942 935.032 495.31 937.11 495.31H1003.89C1005.97 495.31 1007.6 496.942 1007.6 499.02V601.935C1007.6 603.938 1005.97 605.645 1003.89 605.645ZM940.82 598.225H1000.18V502.73H940.82V598.225ZM1198.74 605.645H1131.96C1129.88 605.645 1128.25 604.013 1128.25 601.935V499.02C1128.25 496.942 1129.88 495.31 1131.96 495.31H1198.74C1200.82 495.31 1202.45 496.942 1202.45 499.02V601.935C1202.45 603.938 1200.82 605.645 1198.74 605.645ZM1135.67 598.225H1195.03V502.73H1135.67V598.225ZM809.041 795.152H742.261C740.183 795.152 738.551 793.519 738.551 791.442V688.526C738.551 686.449 740.183 684.816 742.261 684.816H809.041C811.118 684.816 812.751 686.449 812.751 688.526V791.442C812.751 793.519 811.044 795.152 809.041 795.152ZM745.971 787.732H805.331V692.236H745.971V787.732ZM1019.25 841.527H921.751C919.673 841.527 918.041 839.894 918.041 837.817V677.693C918.041 675.616 919.673 673.983 921.751 673.983H1019.25C1021.33 673.983 1022.96 675.616 1022.96 677.693V837.817C1022.96 839.894 1021.33 841.527 1019.25 841.527ZM925.461 834.107H1015.54V681.403H925.461V834.107ZM1198.74 795.152H1131.96C1129.88 795.152 1128.25 793.519 1128.25 791.442V688.526C1128.25 686.449 1129.88 684.816 1131.96 684.816H1198.74C1200.82 684.816 1202.45 686.449 1202.45 688.526V791.442C1202.45 793.519 1200.82 795.152 1198.74 795.152ZM1135.67 787.732H1195.03V692.236H1135.67V787.732ZM1424.38 605.645H1357.6C1355.52 605.645 1353.89 604.013 1353.89 601.935V499.02C1353.89 496.942 1355.52 495.31 1357.6 495.31H1424.38C1426.46 495.31 1428.09 496.942 1428.09 499.02V601.935C1428.09 603.938 1426.38 605.645 1424.38 605.645ZM1361.31 598.225H1420.67V502.73H1361.31V598.225ZM1424.38 795.152H1357.6C1355.52 795.152 1353.89 793.519 1353.89 791.442V688.526C1353.89 686.449 1355.52 684.816 1357.6 684.816H1424.38C1426.46 684.816 1428.09 686.449 1428.09 688.526V791.442C1428.09 793.519 1426.38 795.152 1424.38 795.152ZM1361.31 787.732H1420.67V692.236H1361.31V787.732ZM586.441 605.645H519.661C517.583 605.645 515.951 604.013 515.951 601.935V499.02C515.951 496.942 517.583 495.31 519.661 495.31H586.441C588.518 495.31 590.151 496.942 590.151 499.02V601.935C590.151 603.938 588.518 605.645 586.441 605.645ZM523.371 598.225H582.731V502.73H523.371V598.225ZM586.441 795.152H519.661C517.583 795.152 515.951 793.519 515.951 791.442V688.526C515.951 686.449 517.583 684.816 519.661 684.816H586.441C588.518 684.816 590.151 686.449 590.151 688.526V791.442C590.151 793.519 588.518 795.152 586.441 795.152ZM523.371 787.732H582.731V692.236H523.371V787.732ZM966.79 51H974.21V213.498H966.79V51Z" fill="black"/>
<path d="M970.5 134.475H871.369C869.291 134.475 867.659 132.843 867.659 130.765V65.9884C867.659 63.9108 869.291 62.2784 871.369 62.2784H970.5C972.578 62.2784 974.21 63.9108 974.21 65.9884V130.765C974.21 132.768 972.578 134.475 970.5 134.475ZM875.079 127.055H966.79V69.6984H875.079V127.055Z" fill="black"/>
<path d="M916.557 427.342C916.557 438.918 907.133 448.267 895.558 448.267C892.442 448.267 889.474 447.599 886.877 446.338C880.347 443.37 875.672 436.988 874.856 429.494H849.257C848.895 433.096 847.594 436.54 845.485 439.483C843.376 442.425 840.532 444.763 837.237 446.263C834.05 447.738 830.543 448.386 827.039 448.148C823.536 447.909 820.149 446.792 817.192 444.899C814.234 443.006 811.801 440.399 810.117 437.317C808.433 434.236 807.552 430.78 807.557 427.268C807.557 415.693 816.906 406.27 828.481 406.27H895.558C907.133 406.27 916.557 415.693 916.557 427.342ZM1133.44 427.342C1133.44 438.918 1124.02 448.267 1112.44 448.267C1109.33 448.267 1106.36 447.599 1103.76 446.338C1097.23 443.37 1092.56 436.988 1091.74 429.494H1066.14C1065.78 433.096 1064.48 436.54 1062.37 439.483C1060.26 442.425 1057.42 444.763 1054.12 446.263C1050.94 447.738 1047.43 448.386 1043.93 448.148C1040.42 447.909 1037.04 446.792 1034.08 444.899C1031.12 443.006 1028.69 440.399 1027 437.317C1025.32 434.236 1024.44 430.78 1024.44 427.268C1024.44 415.693 1033.79 406.27 1045.37 406.27H1112.44C1124.02 406.27 1133.44 415.693 1133.44 427.342Z" fill="#8698A6"/>
<path d="M886.877 446.338V823.051H837.237V446.263C840.523 444.751 843.359 442.41 845.467 439.47C847.574 436.53 848.88 433.092 849.257 429.494H874.856C875.672 436.988 880.347 443.37 886.877 446.338ZM1103.76 446.338V823.051H1054.12V446.263C1057.41 444.751 1060.25 442.41 1062.35 439.47C1064.46 436.53 1065.77 433.092 1066.14 429.494H1091.74C1092.56 436.988 1097.31 443.37 1103.76 446.338Z" fill="#BDC9D7"/>
<path d="M895.558 451.977C891.922 451.977 888.509 451.235 885.318 449.751C881.98 448.176 879.032 445.883 876.685 443.035C874.337 440.187 872.649 436.855 871.74 433.278H852.374C850.593 440.476 845.621 446.634 838.795 449.751C835.604 451.235 832.117 452.051 828.481 452.051C821.938 452.051 815.663 449.452 811.036 444.825C806.409 440.198 803.81 433.923 803.81 427.38C803.81 420.836 806.409 414.561 811.036 409.934C815.663 405.307 821.938 402.708 828.481 402.708H895.558C909.211 402.708 920.267 413.764 920.267 427.417C920.267 440.921 909.211 451.977 895.558 451.977ZM849.257 425.784H874.856C875.779 425.78 876.671 426.119 877.357 426.737C878.043 427.354 878.474 428.205 878.566 429.123C879.234 435.133 883.018 440.476 888.435 442.999C890.779 444.063 893.332 444.589 895.906 444.539C898.48 444.488 901.01 443.861 903.31 442.705C905.61 441.549 907.622 439.892 909.199 437.857C910.775 435.821 911.876 433.459 912.42 430.942C912.964 428.426 912.938 425.819 912.343 423.315C911.748 420.81 910.6 418.47 908.983 416.466C907.366 414.463 905.321 412.847 902.998 411.738C900.675 410.628 898.132 410.053 895.558 410.054H828.481C818.984 410.054 811.267 417.845 811.267 427.342C811.267 436.84 818.984 444.557 828.481 444.557C831.004 444.557 833.453 444.037 835.679 442.924C841.169 440.402 844.954 435.133 845.547 429.123C845.77 427.268 847.328 425.784 849.257 425.784ZM1112.44 451.977C1108.81 451.977 1105.4 451.235 1102.2 449.751C1098.87 448.176 1095.92 445.883 1093.57 443.035C1091.22 440.187 1089.54 436.855 1088.63 433.278H1069.26C1067.48 440.476 1062.51 446.634 1055.68 449.751C1052.49 451.235 1049 452.051 1045.37 452.051C1038.82 452.051 1032.55 449.452 1027.92 444.825C1023.3 440.198 1020.7 433.923 1020.7 427.38C1020.7 420.836 1023.3 414.561 1027.92 409.934C1032.55 405.307 1038.82 402.708 1045.37 402.708H1112.44C1126.1 402.708 1137.15 413.764 1137.15 427.417C1137.15 440.921 1126.1 451.977 1112.44 451.977ZM1066.14 425.784H1091.74C1092.67 425.78 1093.56 426.119 1094.24 426.737C1094.93 427.354 1095.36 428.205 1095.45 429.123C1096.12 435.133 1099.9 440.476 1105.32 442.999C1107.67 444.063 1110.22 444.589 1112.79 444.539C1115.37 444.488 1117.9 443.861 1120.2 442.705C1122.5 441.549 1124.51 439.892 1126.09 437.857C1127.66 435.821 1128.76 433.459 1129.31 430.942C1129.85 428.426 1129.82 425.819 1129.23 423.315C1128.63 420.81 1127.49 418.47 1125.87 416.466C1124.25 414.463 1122.21 412.847 1119.88 411.738C1117.56 410.628 1115.02 410.053 1112.44 410.054H1045.37C1035.87 410.054 1028.15 417.845 1028.15 427.342C1028.15 436.84 1035.87 444.557 1045.37 444.557C1047.89 444.557 1050.34 444.037 1052.49 442.924C1057.98 440.402 1061.77 435.133 1062.43 429.123C1062.66 427.268 1064.29 425.784 1066.14 425.784Z" fill="black"/>
<path d="M702.415 429.494H676.816C676.454 433.096 675.153 436.54 673.044 439.483C670.935 442.425 668.091 444.763 664.796 446.263V463.329C668.082 461.817 670.918 459.476 673.026 456.536C675.133 453.596 676.44 450.158 676.816 446.56H702.415C703.232 454.054 707.906 460.436 714.436 463.404V446.338C707.98 443.37 703.232 436.988 702.415 429.494ZM1264.18 429.494H1238.58C1238.22 433.096 1236.92 436.54 1234.81 439.483C1232.7 442.425 1229.86 444.763 1226.56 446.263V463.329C1229.85 461.817 1232.69 459.476 1234.79 456.536C1236.9 453.596 1238.21 450.158 1238.58 446.56H1264.18C1265 454.054 1269.67 460.436 1276.2 463.404V446.338C1269.67 443.37 1264.93 436.988 1264.18 429.494ZM874.856 429.494H849.257C848.895 433.096 847.594 436.54 845.485 439.483C843.376 442.425 840.532 444.763 837.237 446.263V463.329C840.523 461.817 843.359 459.476 845.467 456.536C847.574 453.596 848.88 450.158 849.257 446.56H874.856C875.672 454.054 880.347 460.436 886.877 463.404V446.338C880.347 443.37 875.672 436.988 874.856 429.494ZM1091.74 429.494H1066.14C1065.78 433.096 1064.48 436.54 1062.37 439.483C1060.26 442.425 1057.42 444.763 1054.12 446.263V463.329C1057.41 461.817 1060.25 459.476 1062.35 456.536C1064.46 453.596 1065.77 450.158 1066.14 446.56H1091.74C1092.56 454.054 1097.23 460.436 1103.76 463.404V446.338C1097.31 443.37 1092.56 436.988 1091.74 429.494Z" fill="#ABBFD8"/>
<path d="M714.436 826.835H664.796C662.718 826.835 661.086 825.203 661.086 823.125V446.263C661.086 444.779 661.902 443.518 663.238 442.924C668.654 440.402 672.439 435.133 673.106 429.123C673.329 427.268 674.887 425.784 676.816 425.784H702.415C703.338 425.78 704.23 426.119 704.916 426.737C705.602 427.354 706.033 428.205 706.125 429.123C706.793 435.133 710.577 440.476 715.994 442.999C717.33 443.592 718.146 444.928 718.146 446.338V823.051C718.146 825.129 716.513 826.835 714.436 826.835ZM668.58 819.415H710.8V448.564C707.978 446.882 705.516 444.659 703.555 442.023C701.594 439.388 700.173 436.391 699.373 433.204H680.007C678.449 439.585 674.294 445.15 668.58 448.489V819.415ZM1276.13 826.835H1226.49C1224.41 826.835 1222.78 825.203 1222.78 823.125V446.263C1222.78 444.779 1223.6 443.518 1224.93 442.924C1230.35 440.402 1234.13 435.133 1234.8 429.123C1235.02 427.268 1236.58 425.784 1238.51 425.784H1264.11C1265.03 425.78 1265.92 426.119 1266.61 426.737C1267.3 427.354 1267.73 428.205 1267.82 429.123C1268.49 435.133 1272.27 440.476 1277.69 442.999C1279.02 443.592 1279.84 444.928 1279.84 446.338V823.051C1279.84 825.129 1278.21 826.835 1276.13 826.835ZM1230.27 819.415H1272.49V448.564C1269.67 446.882 1267.21 444.659 1265.25 442.023C1263.29 439.388 1261.87 436.391 1261.07 433.204H1241.7C1240.14 439.585 1235.99 445.15 1230.27 448.489V819.415ZM886.877 826.835H837.237C835.159 826.835 833.527 825.203 833.527 823.125V446.263C833.527 444.779 834.343 443.518 835.679 442.924C841.095 440.402 844.879 435.133 845.547 429.123C845.77 427.268 847.328 425.784 849.257 425.784H874.856C875.779 425.78 876.671 426.119 877.357 426.737C878.043 427.354 878.474 428.205 878.566 429.123C879.234 435.133 883.018 440.476 888.435 442.999C889.77 443.592 890.587 444.928 890.587 446.338V823.051C890.587 825.129 888.88 826.835 886.877 826.835ZM840.947 819.415H883.167V448.564C880.345 446.882 877.883 444.659 875.922 442.023C873.961 439.388 872.54 436.391 871.74 433.204H852.374C850.815 439.585 846.66 445.15 840.947 448.489V819.415ZM1103.76 826.835H1054.12C1052.05 826.835 1050.41 825.203 1050.41 823.125V446.263C1050.41 444.779 1051.23 443.518 1052.57 442.924C1057.98 440.402 1061.77 435.133 1062.43 429.123C1062.66 427.268 1064.21 425.784 1066.14 425.784H1091.74C1092.67 425.78 1093.56 426.119 1094.24 426.737C1094.93 427.354 1095.36 428.205 1095.45 429.123C1096.12 435.133 1099.9 440.476 1105.32 442.999C1106.66 443.592 1107.47 444.928 1107.47 446.338V823.051C1107.47 825.129 1105.84 826.835 1103.76 826.835ZM1057.83 819.415H1100.05V448.564C1097.23 446.882 1094.77 444.659 1092.81 442.023C1090.85 439.388 1089.43 436.391 1088.63 433.204H1069.26C1067.7 439.585 1063.55 445.15 1057.83 448.489V819.415ZM421.42 987.552H1519.58V994.972H421.42V987.552Z" fill="black"/>
</g>
</g>
<defs>
<filter id="filter0_b_2009_803" x="-244.6" y="-35.6" width="2408.2" height="793.2" filterUnits="userSpaceOnUse" color-interpolation-filters="sRGB">
<feFlood flood-opacity="0" result="BackgroundImageFix"/>
<feGaussianBlur in="BackgroundImageFix" stdDeviation="17.8"/>
<feComposite in2="SourceAlpha" operator="in" result="effect1_backgroundBlur_2009_803"/>
<feBlend mode="normal" in="SourceGraphic" in2="effect1_backgroundBlur_2009_803" result="shape"/>
</filter>
<linearGradient id="paint0_linear_2009_803" x1="1208" y1="315.5" x2="1189.44" y2="-120.125" gradientUnits="userSpaceOnUse">
<stop stop-color="#81E2FF"/>
<stop offset="1" stop-color="#7E7CFF" stop-opacity="0.87"/>
</linearGradient>
<linearGradient id="paint1_linear_2009_803" x1="1086.1" y1="178.896" x2="757.012" y2="563.813" gradientUnits="userSpaceOnUse">
<stop stop-color="#FFDD00"/>
<stop offset="1" stop-color="#FFFADA"/>
</linearGradient>
<clipPath id="clip0_2009_803">
<rect width="2337" height="434" fill="white" transform="translate(-209)"/>
</clipPath>
<clipPath id="clip1_2009_803">
<rect width="2337" height="396" fill="white" transform="translate(-209 13)"/>
</clipPath>
<clipPath id="clip2_2009_803">
<rect width="2015" height="379" fill="white" transform="translate(-62 51)"/>
</clipPath>
</defs>
</svg>
