<svg width="1920" height="137" viewBox="0 0 1920 137" fill="none" xmlns="http://www.w3.org/2000/svg">
<path d="M304.051 77.3186C302.931 81.0786 300.665 84.3586 297.598 86.7186C297.825 90.852 297.078 95.0386 295.358 98.9053C292.185 106.025 286.038 111.385 278.545 113.559C271.065 115.732 263.011 114.492 256.518 110.185C255.051 109.199 253.691 108.092 252.451 106.825C249.331 111.252 244.585 114.439 239.078 115.532C233.798 116.572 228.451 115.599 223.971 112.959C219.705 124.079 210.211 132.545 198.411 135.385C186.518 138.265 174.105 134.972 165.211 126.879C155.385 130.932 144.318 131.412 134.025 128.012C125.478 125.199 118.078 119.932 112.665 113.012C108.731 115.905 103.811 117.292 98.8114 116.772C93.5847 116.225 88.8781 113.652 85.6247 109.759C83.3847 114.892 79.2914 119.065 74.0781 121.399C68.3847 123.959 61.9181 124.039 56.2247 121.692C51.3847 126.985 44.7447 130.439 37.4514 131.239C29.4781 132.119 21.558 129.772 15.4114 124.825C6.69138 131.999 -5.56193 133.705 -16.0953 128.759C-24.4819 124.839 -30.3086 117.385 -32.3886 108.812C-39.2553 112.212 -47.7486 111.532 -54.0819 106.385C-59.4819 101.999 -62.0286 95.3987 -61.4419 88.9453C-63.5619 87.3587 -65.2819 85.212 -66.3486 82.652C-67.2953 80.3853 -67.6686 77.9986 -67.4953 75.652C-59.8953 91.0786 -43.1619 99.5053 -26.5086 96.7853C-24.2153 102.585 -19.6953 107.292 -13.8819 109.825C-8.97528 111.959 -3.56195 112.359 1.51805 111.052C8.69139 117.959 19.278 120.265 28.8114 116.745C36.558 113.865 42.3181 107.599 44.6914 100.025C50.7847 103.905 58.1314 105.532 65.4114 104.452C72.7847 103.359 79.4247 99.612 84.1181 93.9986C88.2647 99.4253 95.1447 102.279 102.105 101.172C107.478 100.319 112.078 97.2253 114.918 92.8787C124.091 103.412 138.411 108.199 152.251 105.052C163.851 102.412 173.331 94.612 178.278 84.2387C182.265 88.652 187.931 91.3986 194.105 91.5853C200.638 91.7853 206.785 89.1186 211.091 84.492C216.638 90.8253 225.078 94.0653 233.625 92.8387C239.465 92.012 244.678 89.1853 248.518 85.052C251.558 88.2386 255.518 90.452 259.918 91.3586C266.105 92.6253 272.518 91.1587 277.531 87.3453C282.558 83.5187 285.678 77.7186 286.105 71.4386C286.531 65.1453 284.225 58.9853 279.771 54.5186C283.398 53.172 287.371 52.9987 291.158 54.0253C295.985 55.3587 300.065 58.5853 302.491 62.9587C304.931 67.3453 305.491 72.5186 304.051 77.3186Z" fill="#1B4343"/>
<path d="M286.105 71.4386C285.678 77.7186 282.558 83.5187 277.531 87.3453C272.518 91.1587 266.105 92.6253 259.918 91.3586C255.518 90.452 251.558 88.2386 248.518 85.052C244.678 89.1853 239.465 92.012 233.625 92.8387C225.078 94.0653 216.638 90.8253 211.091 84.492C206.785 89.1186 200.638 91.7853 194.105 91.5853C187.931 91.3986 182.265 88.652 178.278 84.2387C173.331 94.612 163.851 102.412 152.251 105.052C138.411 108.199 124.091 103.412 114.918 92.8787C112.078 97.2253 107.478 100.319 102.105 101.172C95.1448 102.279 88.2648 99.4253 84.1181 93.9987C79.4248 99.612 72.7848 103.359 65.4114 104.452C58.1314 105.532 50.7848 103.905 44.6914 100.025C42.3181 107.599 36.5581 113.865 28.8114 116.745C19.2781 120.265 8.69144 117.959 1.5181 111.052C-3.5619 112.359 -8.97523 111.959 -13.8819 109.825C-19.6952 107.292 -24.2152 102.585 -26.5086 96.7853C-43.1619 99.5053 -59.8952 91.0786 -67.4952 75.652C-71.3885 75.5453 -75.1086 73.812 -77.6952 70.7587C-81.0286 66.8387 -81.9219 61.3853 -80.0019 56.5986C-78.0819 51.812 -73.6819 48.492 -68.5619 47.9453C-65.7619 47.652 -63.0152 48.212 -60.6285 49.4787C-58.2152 45.7987 -54.3085 43.252 -49.8285 42.5853C-44.3619 41.772 -38.8952 43.9053 -35.4285 48.132C-30.4419 41.3987 -22.7619 36.9587 -14.2019 36.132C-6.98855 35.4387 0.0914364 37.3853 5.85144 41.3987C8.1581 37.092 12.2914 33.8787 17.3181 32.8653C21.8648 31.9587 26.4381 32.9853 30.0781 35.4787C32.0114 31.9853 34.9981 29.1053 38.7048 27.3053C42.0648 25.6653 45.7581 25.052 49.3581 25.4253C55.7848 9.33201 72.0114 -1.17471 89.8514 0.105292C106.598 1.30529 120.438 12.612 125.411 27.9186C130.798 24.332 137.518 23.012 144.051 24.4787C150.238 25.8787 155.505 29.6253 158.878 34.7587C161.745 31.3853 165.465 28.7586 169.718 27.172C174.198 25.492 178.985 25.0787 183.585 25.8787C189.611 13.812 202.651 6.1453 216.825 7.58531C230.625 8.98531 241.638 18.612 245.411 31.1587C253.411 29.7053 261.798 31.5987 268.491 36.6253C274.411 41.0787 278.358 47.492 279.771 54.5186C284.225 58.9853 286.531 65.1453 286.105 71.4386Z" fill="#345A41"/>
<path d="M37.7501 92.968C39.3821 94.652 40.9155 95.68 42.4581 96.3386C43.9955 96.992 45.4914 97.2573 46.9861 97.2453C48.4808 97.2173 49.9688 96.92 51.4901 96.2333C53.0155 95.5413 54.5248 94.484 56.1275 92.7653C56.7021 95.0706 55.8248 97.6693 54.0768 99.5333C52.3368 101.415 49.7034 102.565 47.0448 102.576C44.3888 102.616 41.7341 101.525 39.9528 99.6826C38.1661 97.8586 37.2328 95.2826 37.7501 92.968Z" fill="#1B4343"/>
<path d="M240.005 80.42C241.638 82.104 243.171 83.132 244.714 83.7894C246.251 84.444 247.747 84.708 249.242 84.696C250.737 84.668 252.223 84.372 253.745 83.684C255.271 82.992 256.781 81.936 258.383 80.2173C258.958 82.5213 258.081 85.1213 256.333 86.984C254.591 88.8666 251.958 90.0173 249.301 90.028C246.645 90.068 243.989 88.9773 242.207 87.1347C240.422 85.3093 239.489 82.7347 240.005 80.42Z" fill="#1B4343"/>
<path d="M151.038 65.876C154.291 71.2867 158.371 75.4266 163.085 78.2053C167.783 80.9866 173.022 82.3613 178.258 82.3053C183.494 82.2346 188.697 80.7467 193.33 77.864C197.979 74.9814 201.966 70.76 205.11 65.2813C205.231 71.64 202.193 78.176 197.213 82.8133C192.247 87.4893 185.327 90.2587 178.346 90.3027C171.367 90.4013 164.391 87.7867 159.326 83.2227C154.249 78.6947 151.067 72.232 151.038 65.876Z" fill="#1B4343"/>
<path d="M100.242 80.572C102.834 83.6107 105.45 85.6147 108.19 86.92C110.921 88.22 113.697 88.7907 116.471 88.7653C119.245 88.7187 122.003 88.0893 124.702 86.7293C127.41 85.3627 129.981 83.3094 132.515 80.2174C133.246 84.1894 131.625 88.5574 128.585 91.68C125.554 94.832 121.077 96.7413 116.559 96.7627C112.042 96.8307 107.529 95.02 104.431 91.9374C101.327 88.8814 99.61 84.556 100.242 80.572Z" fill="#1B4343"/>
<path d="M478.051 77.3186C476.931 81.0786 474.665 84.3586 471.598 86.7186C471.825 90.852 471.078 95.0386 469.358 98.9053C466.185 106.025 460.038 111.385 452.545 113.559C445.065 115.732 437.011 114.492 430.518 110.185C429.051 109.199 427.691 108.092 426.451 106.825C423.331 111.252 418.585 114.439 413.078 115.532C407.798 116.572 402.451 115.599 397.971 112.959C393.705 124.079 384.211 132.545 372.411 135.385C360.518 138.265 348.105 134.972 339.211 126.879C329.385 130.932 318.318 131.412 308.025 128.012C299.478 125.199 292.078 119.932 286.665 113.012C282.731 115.905 277.811 117.292 272.811 116.772C267.585 116.225 262.878 113.652 259.625 109.759C257.385 114.892 253.291 119.065 248.078 121.399C242.385 123.959 235.918 124.039 230.225 121.692C225.385 126.985 218.745 130.439 211.451 131.239C203.478 132.119 195.558 129.772 189.411 124.825C180.691 131.999 168.438 133.705 157.905 128.759C149.518 124.839 143.691 117.385 141.611 108.812C134.745 112.212 126.251 111.532 119.918 106.385C114.518 101.999 111.971 95.3987 112.558 88.9453C110.438 87.3587 108.718 85.212 107.651 82.652C106.705 80.3853 106.331 77.9986 106.505 75.652C114.105 91.0786 130.838 99.5053 147.491 96.7853C149.785 102.585 154.305 107.292 160.118 109.825C165.025 111.959 170.438 112.359 175.518 111.052C182.691 117.959 193.278 120.265 202.811 116.745C210.558 113.865 216.318 107.599 218.691 100.025C224.785 103.905 232.131 105.532 239.411 104.452C246.785 103.359 253.425 99.612 258.118 93.9986C262.265 99.4253 269.145 102.279 276.105 101.172C281.478 100.319 286.078 97.2253 288.918 92.8787C298.091 103.412 312.411 108.199 326.251 105.052C337.851 102.412 347.331 94.612 352.278 84.2387C356.265 88.652 361.931 91.3986 368.105 91.5853C374.638 91.7853 380.785 89.1186 385.091 84.492C390.638 90.8253 399.078 94.0653 407.625 92.8387C413.465 92.012 418.678 89.1853 422.518 85.052C425.558 88.2386 429.518 90.452 433.918 91.3586C440.105 92.6253 446.518 91.1587 451.531 87.3453C456.558 83.5187 459.678 77.7186 460.105 71.4386C460.531 65.1453 458.225 58.9853 453.771 54.5186C457.398 53.172 461.371 52.9987 465.158 54.0253C469.985 55.3587 474.065 58.5853 476.491 62.9587C478.931 67.3453 479.491 72.5186 478.051 77.3186Z" fill="#1B4343"/>
<path d="M460.105 71.4386C459.678 77.7186 456.558 83.5187 451.531 87.3453C446.518 91.1587 440.105 92.6253 433.918 91.3586C429.518 90.452 425.558 88.2386 422.518 85.052C418.678 89.1853 413.465 92.012 407.625 92.8387C399.078 94.0653 390.638 90.8253 385.091 84.492C380.785 89.1186 374.638 91.7853 368.105 91.5853C361.931 91.3986 356.265 88.652 352.278 84.2387C347.331 94.612 337.851 102.412 326.251 105.052C312.411 108.199 298.091 103.412 288.918 92.8787C286.078 97.2253 281.478 100.319 276.105 101.172C269.145 102.279 262.265 99.4253 258.118 93.9987C253.425 99.612 246.785 103.359 239.411 104.452C232.131 105.532 224.785 103.905 218.691 100.025C216.318 107.599 210.558 113.865 202.811 116.745C193.278 120.265 182.691 117.959 175.518 111.052C170.438 112.359 165.025 111.959 160.118 109.825C154.305 107.292 149.785 102.585 147.491 96.7853C130.838 99.5053 114.105 91.0786 106.505 75.652C102.611 75.5453 98.8914 73.812 96.3048 70.7587C92.9714 66.8387 92.0781 61.3853 93.9981 56.5986C95.9181 51.812 100.318 48.492 105.438 47.9453C108.238 47.652 110.985 48.212 113.371 49.4787C115.785 45.7987 119.691 43.252 124.171 42.5853C129.638 41.772 135.105 43.9053 138.571 48.132C143.558 41.3987 151.238 36.9587 159.798 36.132C167.011 35.4387 174.091 37.3853 179.851 41.3987C182.158 37.092 186.291 33.8787 191.318 32.8653C195.865 31.9587 200.438 32.9853 204.078 35.4787C206.011 31.9853 208.998 29.1053 212.705 27.3053C216.065 25.6653 219.758 25.052 223.358 25.4253C229.785 9.33201 246.011 -1.17471 263.851 0.105292C280.598 1.30529 294.438 12.612 299.411 27.9186C304.798 24.332 311.518 23.012 318.051 24.4787C324.238 25.8787 329.505 29.6253 332.878 34.7587C335.745 31.3853 339.465 28.7586 343.718 27.172C348.198 25.492 352.985 25.0787 357.585 25.8787C363.611 13.812 376.651 6.1453 390.825 7.58531C404.625 8.98531 415.638 18.612 419.411 31.1587C427.411 29.7053 435.798 31.5987 442.491 36.6253C448.411 41.0787 452.358 47.492 453.771 54.5186C458.225 58.9853 460.531 65.1453 460.105 71.4386Z" fill="#345A41"/>
<path d="M211.75 92.968C213.382 94.652 214.915 95.68 216.458 96.3386C217.995 96.992 219.491 97.2573 220.986 97.2453C222.481 97.2173 223.969 96.92 225.49 96.2333C227.015 95.5413 228.525 94.484 230.127 92.7653C230.702 95.0706 229.825 97.6693 228.077 99.5333C226.337 101.415 223.703 102.565 221.045 102.576C218.389 102.616 215.734 101.525 213.953 99.6826C212.166 97.8586 211.233 95.2826 211.75 92.968Z" fill="#1B4343"/>
<path d="M414.005 80.42C415.638 82.104 417.171 83.132 418.714 83.7894C420.251 84.444 421.747 84.708 423.242 84.696C424.737 84.668 426.223 84.372 427.745 83.684C429.271 82.992 430.781 81.936 432.383 80.2173C432.958 82.5213 432.081 85.1213 430.333 86.984C428.591 88.8666 425.958 90.0173 423.301 90.028C420.645 90.068 417.989 88.9773 416.207 87.1347C414.422 85.3093 413.489 82.7347 414.005 80.42Z" fill="#1B4343"/>
<path d="M325.038 65.876C328.291 71.2867 332.371 75.4266 337.085 78.2053C341.783 80.9866 347.022 82.3613 352.258 82.3053C357.494 82.2346 362.697 80.7467 367.33 77.864C371.979 74.9814 375.966 70.76 379.11 65.2813C379.231 71.64 376.193 78.176 371.213 82.8133C366.247 87.4893 359.327 90.2587 352.346 90.3027C345.367 90.4013 338.391 87.7867 333.326 83.2227C328.249 78.6947 325.067 72.232 325.038 65.876Z" fill="#1B4343"/>
<path d="M274.242 80.572C276.834 83.6107 279.45 85.6147 282.19 86.92C284.921 88.22 287.697 88.7907 290.471 88.7653C293.245 88.7187 296.003 88.0893 298.702 86.7293C301.41 85.3627 303.981 83.3094 306.515 80.2174C307.246 84.1894 305.625 88.5574 302.585 91.68C299.554 94.832 295.077 96.7413 290.559 96.7627C286.042 96.8307 281.529 95.02 278.431 91.9374C275.327 88.8814 273.61 84.556 274.242 80.572Z" fill="#1B4343"/>
<path d="M165.27 93.7893C163.631 96.584 160.846 98.68 157.695 99.8586C154.534 101.035 150.97 101.275 147.614 100.541C144.254 99.8226 141.11 98.124 138.722 95.7413C136.342 93.3626 134.678 90.2973 134.353 87.0706C136.679 89.3013 138.919 91.0773 141.313 92.4453C143.693 93.8146 146.177 94.7653 148.746 95.332C151.318 95.8906 153.975 96.056 156.71 95.7973C159.457 95.548 162.233 94.8586 165.27 93.7893Z" fill="#1B4343"/>
<path d="M662.051 77.3186C660.931 81.0786 658.665 84.3586 655.598 86.7186C655.825 90.852 655.078 95.0386 653.358 98.9053C650.185 106.025 644.038 111.385 636.545 113.559C629.065 115.732 621.011 114.492 614.518 110.185C613.051 109.199 611.691 108.092 610.451 106.825C607.331 111.252 602.585 114.439 597.078 115.532C591.798 116.572 586.451 115.599 581.971 112.959C577.705 124.079 568.211 132.545 556.411 135.385C544.518 138.265 532.105 134.972 523.211 126.879C513.385 130.932 502.318 131.412 492.025 128.012C483.478 125.199 476.078 119.932 470.665 113.012C466.731 115.905 461.811 117.292 456.811 116.772C451.585 116.225 446.878 113.652 443.625 109.759C441.385 114.892 437.291 119.065 432.078 121.399C426.385 123.959 419.918 124.039 414.225 121.692C409.385 126.985 402.745 130.439 395.451 131.239C387.478 132.119 379.558 129.772 373.411 124.825C364.691 131.999 352.438 133.705 341.905 128.759C333.518 124.839 327.691 117.385 325.611 108.812C318.745 112.212 310.251 111.532 303.918 106.385C298.518 101.999 295.971 95.3987 296.558 88.9453C294.438 87.3587 292.718 85.212 291.651 82.652C290.705 80.3853 290.331 77.9986 290.505 75.652C298.105 91.0786 314.838 99.5053 331.491 96.7853C333.785 102.585 338.305 107.292 344.118 109.825C349.025 111.959 354.438 112.359 359.518 111.052C366.691 117.959 377.278 120.265 386.811 116.745C394.558 113.865 400.318 107.599 402.691 100.025C408.785 103.905 416.131 105.532 423.411 104.452C430.785 103.359 437.425 99.612 442.118 93.9986C446.265 99.4253 453.145 102.279 460.105 101.172C465.478 100.319 470.078 97.2253 472.918 92.8787C482.091 103.412 496.411 108.199 510.251 105.052C521.851 102.412 531.331 94.612 536.278 84.2387C540.265 88.652 545.931 91.3986 552.105 91.5853C558.638 91.7853 564.785 89.1186 569.091 84.492C574.638 90.8253 583.078 94.0653 591.625 92.8387C597.465 92.012 602.678 89.1853 606.518 85.052C609.558 88.2386 613.518 90.452 617.918 91.3586C624.105 92.6253 630.518 91.1587 635.531 87.3453C640.558 83.5187 643.678 77.7186 644.105 71.4386C644.531 65.1453 642.225 58.9853 637.771 54.5186C641.398 53.172 645.371 52.9987 649.158 54.0253C653.985 55.3587 658.065 58.5853 660.491 62.9587C662.931 67.3453 663.491 72.5186 662.051 77.3186Z" fill="#1B4343"/>
<path d="M644.105 71.4386C643.678 77.7186 640.558 83.5187 635.531 87.3453C630.518 91.1587 624.105 92.6253 617.918 91.3586C613.518 90.452 609.558 88.2386 606.518 85.052C602.678 89.1853 597.465 92.012 591.625 92.8387C583.078 94.0653 574.638 90.8253 569.091 84.492C564.785 89.1186 558.638 91.7853 552.105 91.5853C545.931 91.3986 540.265 88.652 536.278 84.2387C531.331 94.612 521.851 102.412 510.251 105.052C496.411 108.199 482.091 103.412 472.918 92.8787C470.078 97.2253 465.478 100.319 460.105 101.172C453.145 102.279 446.265 99.4253 442.118 93.9987C437.425 99.612 430.785 103.359 423.411 104.452C416.131 105.532 408.785 103.905 402.691 100.025C400.318 107.599 394.558 113.865 386.811 116.745C377.278 120.265 366.691 117.959 359.518 111.052C354.438 112.359 349.025 111.959 344.118 109.825C338.305 107.292 333.785 102.585 331.491 96.7853C314.838 99.5053 298.105 91.0786 290.505 75.652C286.611 75.5453 282.891 73.812 280.305 70.7587C276.971 66.8387 276.078 61.3853 277.998 56.5986C279.918 51.812 284.318 48.492 289.438 47.9453C292.238 47.652 294.985 48.212 297.371 49.4787C299.785 45.7987 303.691 43.252 308.171 42.5853C313.638 41.772 319.105 43.9053 322.571 48.132C327.558 41.3987 335.238 36.9587 343.798 36.132C351.011 35.4387 358.091 37.3853 363.851 41.3987C366.158 37.092 370.291 33.8787 375.318 32.8653C379.865 31.9587 384.438 32.9853 388.078 35.4787C390.011 31.9853 392.998 29.1053 396.705 27.3053C400.065 25.6653 403.758 25.052 407.358 25.4253C413.785 9.33201 430.011 -1.17471 447.851 0.105292C464.598 1.30529 478.438 12.612 483.411 27.9186C488.798 24.332 495.518 23.012 502.051 24.4787C508.238 25.8787 513.505 29.6253 516.878 34.7587C519.745 31.3853 523.465 28.7586 527.718 27.172C532.198 25.492 536.985 25.0787 541.585 25.8787C547.611 13.812 560.651 6.1453 574.825 7.58531C588.625 8.98531 599.638 18.612 603.411 31.1587C611.411 29.7053 619.798 31.5987 626.491 36.6253C632.411 41.0787 636.358 47.492 637.771 54.5186C642.225 58.9853 644.531 65.1453 644.105 71.4386Z" fill="#345A41"/>
<path d="M395.75 92.968C397.382 94.652 398.915 95.68 400.458 96.3386C401.995 96.992 403.491 97.2573 404.986 97.2453C406.481 97.2173 407.969 96.92 409.49 96.2333C411.015 95.5413 412.525 94.484 414.127 92.7653C414.702 95.0706 413.825 97.6693 412.077 99.5333C410.337 101.415 407.703 102.565 405.045 102.576C402.389 102.616 399.734 101.525 397.953 99.6826C396.166 97.8586 395.233 95.2826 395.75 92.968Z" fill="#1B4343"/>
<path d="M598.005 80.42C599.638 82.104 601.171 83.132 602.714 83.7894C604.251 84.444 605.747 84.708 607.242 84.696C608.737 84.668 610.223 84.372 611.745 83.684C613.271 82.992 614.781 81.936 616.383 80.2173C616.958 82.5213 616.081 85.1213 614.333 86.984C612.591 88.8666 609.958 90.0173 607.301 90.028C604.645 90.068 601.989 88.9773 600.207 87.1347C598.422 85.3093 597.489 82.7347 598.005 80.42Z" fill="#1B4343"/>
<path d="M509.038 65.876C512.291 71.2867 516.371 75.4266 521.085 78.2053C525.783 80.9866 531.022 82.3613 536.258 82.3053C541.494 82.2346 546.697 80.7467 551.33 77.864C555.979 74.9814 559.966 70.76 563.11 65.2813C563.231 71.64 560.193 78.176 555.213 82.8133C550.247 87.4893 543.327 90.2587 536.346 90.3027C529.367 90.4013 522.391 87.7867 517.326 83.2227C512.249 78.6947 509.067 72.232 509.038 65.876Z" fill="#1B4343"/>
<path d="M458.242 80.572C460.834 83.6107 463.45 85.6147 466.19 86.92C468.921 88.22 471.697 88.7907 474.471 88.7653C477.245 88.7187 480.003 88.0893 482.702 86.7293C485.41 85.3627 487.981 83.3094 490.515 80.2174C491.246 84.1894 489.625 88.5574 486.585 91.68C483.554 94.832 479.077 96.7413 474.559 96.7627C470.042 96.8307 465.529 95.02 462.431 91.9374C459.327 88.8814 457.61 84.556 458.242 80.572Z" fill="#1B4343"/>
<path d="M349.27 93.7893C347.631 96.584 344.846 98.68 341.695 99.8586C338.534 101.035 334.97 101.275 331.614 100.541C328.254 99.8226 325.11 98.124 322.722 95.7413C320.342 93.3626 318.678 90.2973 318.353 87.0706C320.679 89.3013 322.919 91.0773 325.313 92.4453C327.693 93.8146 330.177 94.7653 332.746 95.332C335.318 95.8906 337.975 96.056 340.71 95.7973C343.457 95.548 346.233 94.8586 349.27 93.7893Z" fill="#1B4343"/>
<path d="M836.051 77.3186C834.931 81.0786 832.665 84.3586 829.598 86.7186C829.825 90.852 829.078 95.0386 827.358 98.9053C824.185 106.025 818.038 111.385 810.545 113.559C803.065 115.732 795.011 114.492 788.518 110.185C787.051 109.199 785.691 108.092 784.451 106.825C781.331 111.252 776.585 114.439 771.078 115.532C765.798 116.572 760.451 115.599 755.971 112.959C751.705 124.079 742.211 132.545 730.411 135.385C718.518 138.265 706.105 134.972 697.211 126.879C687.385 130.932 676.318 131.412 666.025 128.012C657.478 125.199 650.078 119.932 644.665 113.012C640.731 115.905 635.811 117.292 630.811 116.772C625.585 116.225 620.878 113.652 617.625 109.759C615.385 114.892 611.291 119.065 606.078 121.399C600.385 123.959 593.918 124.039 588.225 121.692C583.385 126.985 576.745 130.439 569.451 131.239C561.478 132.119 553.558 129.772 547.411 124.825C538.691 131.999 526.438 133.705 515.905 128.759C507.518 124.839 501.691 117.385 499.611 108.812C492.745 112.212 484.251 111.532 477.918 106.385C472.518 101.999 469.971 95.3987 470.558 88.9453C468.438 87.3587 466.718 85.212 465.651 82.652C464.705 80.3853 464.331 77.9986 464.505 75.652C472.105 91.0786 488.838 99.5053 505.491 96.7853C507.785 102.585 512.305 107.292 518.118 109.825C523.025 111.959 528.438 112.359 533.518 111.052C540.691 117.959 551.278 120.265 560.811 116.745C568.558 113.865 574.318 107.599 576.691 100.025C582.785 103.905 590.131 105.532 597.411 104.452C604.785 103.359 611.425 99.612 616.118 93.9986C620.265 99.4253 627.145 102.279 634.105 101.172C639.478 100.319 644.078 97.2253 646.918 92.8787C656.091 103.412 670.411 108.199 684.251 105.052C695.851 102.412 705.331 94.612 710.278 84.2387C714.265 88.652 719.931 91.3986 726.105 91.5853C732.638 91.7853 738.785 89.1186 743.091 84.492C748.638 90.8253 757.078 94.0653 765.625 92.8387C771.465 92.012 776.678 89.1853 780.518 85.052C783.558 88.2386 787.518 90.452 791.918 91.3586C798.105 92.6253 804.518 91.1587 809.531 87.3453C814.558 83.5187 817.678 77.7186 818.105 71.4386C818.531 65.1453 816.225 58.9853 811.771 54.5186C815.398 53.172 819.371 52.9987 823.158 54.0253C827.985 55.3587 832.065 58.5853 834.491 62.9587C836.931 67.3453 837.491 72.5186 836.051 77.3186Z" fill="#1B4343"/>
<path d="M818.105 71.4386C817.678 77.7186 814.558 83.5187 809.531 87.3453C804.518 91.1587 798.105 92.6253 791.918 91.3586C787.518 90.452 783.558 88.2386 780.518 85.052C776.678 89.1853 771.465 92.012 765.625 92.8387C757.078 94.0653 748.638 90.8253 743.091 84.492C738.785 89.1186 732.638 91.7853 726.105 91.5853C719.931 91.3986 714.265 88.652 710.278 84.2387C705.331 94.612 695.851 102.412 684.251 105.052C670.411 108.199 656.091 103.412 646.918 92.8787C644.078 97.2253 639.478 100.319 634.105 101.172C627.145 102.279 620.265 99.4253 616.118 93.9987C611.425 99.612 604.785 103.359 597.411 104.452C590.131 105.532 582.785 103.905 576.691 100.025C574.318 107.599 568.558 113.865 560.811 116.745C551.278 120.265 540.691 117.959 533.518 111.052C528.438 112.359 523.025 111.959 518.118 109.825C512.305 107.292 507.785 102.585 505.491 96.7853C488.838 99.5053 472.105 91.0786 464.505 75.652C460.611 75.5453 456.891 73.812 454.305 70.7587C450.971 66.8387 450.078 61.3853 451.998 56.5986C453.918 51.812 458.318 48.492 463.438 47.9453C466.238 47.652 468.985 48.212 471.371 49.4787C473.785 45.7987 477.691 43.252 482.171 42.5853C487.638 41.772 493.105 43.9053 496.571 48.132C501.558 41.3987 509.238 36.9587 517.798 36.132C525.011 35.4387 532.091 37.3853 537.851 41.3987C540.158 37.092 544.291 33.8787 549.318 32.8653C553.865 31.9587 558.438 32.9853 562.078 35.4787C564.011 31.9853 566.998 29.1053 570.705 27.3053C574.065 25.6653 577.758 25.052 581.358 25.4253C587.785 9.33201 604.011 -1.17471 621.851 0.105292C638.598 1.30529 652.438 12.612 657.411 27.9186C662.798 24.332 669.518 23.012 676.051 24.4787C682.238 25.8787 687.505 29.6253 690.878 34.7587C693.745 31.3853 697.465 28.7586 701.718 27.172C706.198 25.492 710.985 25.0787 715.585 25.8787C721.611 13.812 734.651 6.1453 748.825 7.58531C762.625 8.98531 773.638 18.612 777.411 31.1587C785.411 29.7053 793.798 31.5987 800.491 36.6253C806.411 41.0787 810.358 47.492 811.771 54.5186C816.225 58.9853 818.531 65.1453 818.105 71.4386Z" fill="#345A41"/>
<path d="M569.75 92.968C571.382 94.652 572.915 95.68 574.458 96.3386C575.995 96.992 577.491 97.2573 578.986 97.2453C580.481 97.2173 581.969 96.92 583.49 96.2333C585.015 95.5413 586.525 94.484 588.127 92.7653C588.702 95.0706 587.825 97.6693 586.077 99.5333C584.337 101.415 581.703 102.565 579.045 102.576C576.389 102.616 573.734 101.525 571.953 99.6826C570.166 97.8586 569.233 95.2826 569.75 92.968Z" fill="#1B4343"/>
<path d="M772.005 80.42C773.638 82.104 775.171 83.132 776.714 83.7894C778.251 84.444 779.747 84.708 781.242 84.696C782.737 84.668 784.223 84.372 785.745 83.684C787.271 82.992 788.781 81.936 790.383 80.2173C790.958 82.5213 790.081 85.1213 788.333 86.984C786.591 88.8666 783.958 90.0173 781.301 90.028C778.645 90.068 775.989 88.9773 774.207 87.1347C772.422 85.3093 771.489 82.7347 772.005 80.42Z" fill="#1B4343"/>
<path d="M683.038 65.876C686.291 71.2867 690.371 75.4266 695.085 78.2053C699.783 80.9866 705.022 82.3613 710.258 82.3053C715.494 82.2346 720.697 80.7467 725.33 77.864C729.979 74.9814 733.966 70.76 737.11 65.2813C737.231 71.64 734.193 78.176 729.213 82.8133C724.247 87.4893 717.327 90.2587 710.346 90.3027C703.367 90.4013 696.391 87.7867 691.326 83.2227C686.249 78.6947 683.067 72.232 683.038 65.876Z" fill="#1B4343"/>
<path d="M632.242 80.572C634.834 83.6107 637.45 85.6147 640.19 86.92C642.921 88.22 645.697 88.7907 648.471 88.7653C651.245 88.7187 654.003 88.0893 656.702 86.7293C659.41 85.3627 661.981 83.3094 664.515 80.2174C665.246 84.1894 663.625 88.5574 660.585 91.68C657.554 94.832 653.077 96.7413 648.559 96.7627C644.042 96.8307 639.529 95.02 636.431 91.9374C633.327 88.8814 631.61 84.556 632.242 80.572Z" fill="#1B4343"/>
<path d="M523.27 93.7893C521.631 96.584 518.846 98.68 515.695 99.8586C512.534 101.035 508.97 101.275 505.614 100.541C502.254 99.8226 499.11 98.124 496.722 95.7413C494.342 93.3626 492.678 90.2973 492.353 87.0706C494.679 89.3013 496.919 91.0773 499.313 92.4453C501.693 93.8146 504.177 94.7653 506.746 95.332C509.318 95.8906 511.975 96.056 514.71 95.7973C517.457 95.548 520.233 94.8586 523.27 93.7893Z" fill="#1B4343"/>
<path d="M1002.05 77.3186C1000.93 81.0786 998.665 84.3586 995.598 86.7186C995.825 90.852 995.078 95.0386 993.358 98.9053C990.185 106.025 984.038 111.385 976.545 113.559C969.065 115.732 961.011 114.492 954.518 110.185C953.051 109.199 951.691 108.092 950.451 106.825C947.331 111.252 942.585 114.439 937.078 115.532C931.798 116.572 926.451 115.599 921.971 112.959C917.705 124.079 908.211 132.545 896.411 135.385C884.518 138.265 872.105 134.972 863.211 126.879C853.385 130.932 842.318 131.412 832.025 128.012C823.478 125.199 816.078 119.932 810.665 113.012C806.731 115.905 801.811 117.292 796.811 116.772C791.585 116.225 786.878 113.652 783.625 109.759C781.385 114.892 777.291 119.065 772.078 121.399C766.385 123.959 759.918 124.039 754.225 121.692C749.385 126.985 742.745 130.439 735.451 131.239C727.478 132.119 719.558 129.772 713.411 124.825C704.691 131.999 692.438 133.705 681.905 128.759C673.518 124.839 667.691 117.385 665.611 108.812C658.745 112.212 650.251 111.532 643.918 106.385C638.518 101.999 635.971 95.3987 636.558 88.9453C634.438 87.3587 632.718 85.212 631.651 82.652C630.705 80.3853 630.331 77.9986 630.505 75.652C638.105 91.0786 654.838 99.5053 671.491 96.7853C673.785 102.585 678.305 107.292 684.118 109.825C689.025 111.959 694.438 112.359 699.518 111.052C706.691 117.959 717.278 120.265 726.811 116.745C734.558 113.865 740.318 107.599 742.691 100.025C748.785 103.905 756.131 105.532 763.411 104.452C770.785 103.359 777.425 99.612 782.118 93.9986C786.265 99.4253 793.145 102.279 800.105 101.172C805.478 100.319 810.078 97.2253 812.918 92.8787C822.091 103.412 836.411 108.199 850.251 105.052C861.851 102.412 871.331 94.612 876.278 84.2387C880.265 88.652 885.931 91.3986 892.105 91.5853C898.638 91.7853 904.785 89.1186 909.091 84.492C914.638 90.8253 923.078 94.0653 931.625 92.8387C937.465 92.012 942.678 89.1853 946.518 85.052C949.558 88.2386 953.518 90.452 957.918 91.3586C964.105 92.6253 970.518 91.1587 975.531 87.3453C980.558 83.5187 983.678 77.7186 984.105 71.4386C984.531 65.1453 982.225 58.9853 977.771 54.5186C981.398 53.172 985.371 52.9987 989.158 54.0253C993.985 55.3587 998.065 58.5853 1000.49 62.9587C1002.93 67.3453 1003.49 72.5186 1002.05 77.3186Z" fill="#1B4343"/>
<path d="M984.105 71.4386C983.678 77.7186 980.558 83.5187 975.531 87.3453C970.518 91.1587 964.105 92.6253 957.918 91.3586C953.518 90.452 949.558 88.2386 946.518 85.052C942.678 89.1853 937.465 92.012 931.625 92.8387C923.078 94.0653 914.638 90.8253 909.091 84.492C904.785 89.1186 898.638 91.7853 892.105 91.5853C885.931 91.3986 880.265 88.652 876.278 84.2387C871.331 94.612 861.851 102.412 850.251 105.052C836.411 108.199 822.091 103.412 812.918 92.8787C810.078 97.2253 805.478 100.319 800.105 101.172C793.145 102.279 786.265 99.4253 782.118 93.9987C777.425 99.612 770.785 103.359 763.411 104.452C756.131 105.532 748.785 103.905 742.691 100.025C740.318 107.599 734.558 113.865 726.811 116.745C717.278 120.265 706.691 117.959 699.518 111.052C694.438 112.359 689.025 111.959 684.118 109.825C678.305 107.292 673.785 102.585 671.491 96.7853C654.838 99.5053 638.105 91.0786 630.505 75.652C626.611 75.5453 622.891 73.812 620.305 70.7587C616.971 66.8387 616.078 61.3853 617.998 56.5986C619.918 51.812 624.318 48.492 629.438 47.9453C632.238 47.652 634.985 48.212 637.371 49.4787C639.785 45.7987 643.691 43.252 648.171 42.5853C653.638 41.772 659.105 43.9053 662.571 48.132C667.558 41.3987 675.238 36.9587 683.798 36.132C691.011 35.4387 698.091 37.3853 703.851 41.3987C706.158 37.092 710.291 33.8787 715.318 32.8653C719.865 31.9587 724.438 32.9853 728.078 35.4787C730.011 31.9853 732.998 29.1053 736.705 27.3053C740.065 25.6653 743.758 25.052 747.358 25.4253C753.785 9.33201 770.011 -1.17471 787.851 0.105292C804.598 1.30529 818.438 12.612 823.411 27.9186C828.798 24.332 835.518 23.012 842.051 24.4787C848.238 25.8787 853.505 29.6253 856.878 34.7587C859.745 31.3853 863.465 28.7586 867.718 27.172C872.198 25.492 876.985 25.0787 881.585 25.8787C887.611 13.812 900.651 6.1453 914.825 7.58531C928.625 8.98531 939.638 18.612 943.411 31.1587C951.411 29.7053 959.798 31.5987 966.491 36.6253C972.411 41.0787 976.358 47.492 977.771 54.5186C982.225 58.9853 984.531 65.1453 984.105 71.4386Z" fill="#345A41"/>
<path d="M735.75 92.968C737.382 94.652 738.915 95.68 740.458 96.3386C741.995 96.992 743.491 97.2573 744.986 97.2453C746.481 97.2173 747.969 96.92 749.49 96.2333C751.015 95.5413 752.525 94.484 754.127 92.7653C754.702 95.0706 753.825 97.6693 752.077 99.5333C750.337 101.415 747.703 102.565 745.045 102.576C742.389 102.616 739.734 101.525 737.953 99.6826C736.166 97.8586 735.233 95.2826 735.75 92.968Z" fill="#1B4343"/>
<path d="M938.005 80.42C939.638 82.104 941.171 83.132 942.714 83.7894C944.251 84.444 945.747 84.708 947.242 84.696C948.737 84.668 950.223 84.372 951.745 83.684C953.271 82.992 954.781 81.936 956.383 80.2173C956.958 82.5213 956.081 85.1213 954.333 86.984C952.591 88.8666 949.958 90.0173 947.301 90.028C944.645 90.068 941.989 88.9773 940.207 87.1347C938.422 85.3093 937.489 82.7347 938.005 80.42Z" fill="#1B4343"/>
<path d="M849.038 65.876C852.291 71.2867 856.371 75.4266 861.085 78.2053C865.783 80.9866 871.022 82.3613 876.258 82.3053C881.494 82.2346 886.697 80.7467 891.33 77.864C895.979 74.9814 899.966 70.76 903.11 65.2813C903.231 71.64 900.193 78.176 895.213 82.8133C890.247 87.4893 883.327 90.2587 876.346 90.3027C869.367 90.4013 862.391 87.7867 857.326 83.2227C852.249 78.6947 849.067 72.232 849.038 65.876Z" fill="#1B4343"/>
<path d="M798.242 80.572C800.834 83.6107 803.45 85.6147 806.19 86.92C808.921 88.22 811.697 88.7907 814.471 88.7653C817.245 88.7187 820.003 88.0893 822.702 86.7293C825.41 85.3627 827.981 83.3094 830.515 80.2174C831.246 84.1894 829.625 88.5574 826.585 91.68C823.554 94.832 819.077 96.7413 814.559 96.7627C810.042 96.8307 805.529 95.02 802.431 91.9374C799.327 88.8814 797.61 84.556 798.242 80.572Z" fill="#1B4343"/>
<path d="M689.27 93.7893C687.631 96.584 684.846 98.68 681.695 99.8586C678.534 101.035 674.97 101.275 671.614 100.541C668.254 99.8226 665.11 98.124 662.722 95.7413C660.342 93.3626 658.678 90.2973 658.353 87.0706C660.679 89.3013 662.919 91.0773 665.313 92.4453C667.693 93.8146 670.177 94.7653 672.746 95.332C675.318 95.8906 677.975 96.056 680.71 95.7973C683.457 95.548 686.233 94.8586 689.27 93.7893Z" fill="#1B4343"/>
<path d="M1176.05 77.3186C1174.93 81.0786 1172.66 84.3586 1169.6 86.7186C1169.82 90.852 1169.08 95.0386 1167.36 98.9053C1164.18 106.025 1158.04 111.385 1150.54 113.559C1143.06 115.732 1135.01 114.492 1128.52 110.185C1127.05 109.199 1125.69 108.092 1124.45 106.825C1121.33 111.252 1116.58 114.439 1111.08 115.532C1105.8 116.572 1100.45 115.599 1095.97 112.959C1091.7 124.079 1082.21 132.545 1070.41 135.385C1058.52 138.265 1046.1 134.972 1037.21 126.879C1027.38 130.932 1016.32 131.412 1006.02 128.012C997.478 125.199 990.078 119.932 984.665 113.012C980.731 115.905 975.811 117.292 970.811 116.772C965.585 116.225 960.878 113.652 957.625 109.759C955.385 114.892 951.291 119.065 946.078 121.399C940.385 123.959 933.918 124.039 928.225 121.692C923.385 126.985 916.745 130.439 909.451 131.239C901.478 132.119 893.558 129.772 887.411 124.825C878.691 131.999 866.438 133.705 855.905 128.759C847.518 124.839 841.691 117.385 839.611 108.812C832.745 112.212 824.251 111.532 817.918 106.385C812.518 101.999 809.971 95.3987 810.558 88.9453C808.438 87.3587 806.718 85.212 805.651 82.652C804.705 80.3853 804.331 77.9986 804.505 75.652C812.105 91.0786 828.838 99.5053 845.491 96.7853C847.785 102.585 852.305 107.292 858.118 109.825C863.025 111.959 868.438 112.359 873.518 111.052C880.691 117.959 891.278 120.265 900.811 116.745C908.558 113.865 914.318 107.599 916.691 100.025C922.785 103.905 930.131 105.532 937.411 104.452C944.785 103.359 951.425 99.612 956.118 93.9986C960.265 99.4253 967.145 102.279 974.105 101.172C979.478 100.319 984.078 97.2253 986.918 92.8787C996.091 103.412 1010.41 108.199 1024.25 105.052C1035.85 102.412 1045.33 94.612 1050.28 84.2387C1054.26 88.652 1059.93 91.3986 1066.1 91.5853C1072.64 91.7853 1078.78 89.1186 1083.09 84.492C1088.64 90.8253 1097.08 94.0653 1105.62 92.8387C1111.46 92.012 1116.68 89.1853 1120.52 85.052C1123.56 88.2386 1127.52 90.452 1131.92 91.3586C1138.1 92.6253 1144.52 91.1587 1149.53 87.3453C1154.56 83.5187 1157.68 77.7186 1158.1 71.4386C1158.53 65.1453 1156.22 58.9853 1151.77 54.5186C1155.4 53.172 1159.37 52.9987 1163.16 54.0253C1167.98 55.3587 1172.06 58.5853 1174.49 62.9587C1176.93 67.3453 1177.49 72.5186 1176.05 77.3186Z" fill="#1B4343"/>
<path d="M1158.1 71.4386C1157.68 77.7186 1154.56 83.5187 1149.53 87.3453C1144.52 91.1587 1138.1 92.6253 1131.92 91.3586C1127.52 90.452 1123.56 88.2386 1120.52 85.052C1116.68 89.1853 1111.46 92.012 1105.62 92.8387C1097.08 94.0653 1088.64 90.8253 1083.09 84.492C1078.78 89.1186 1072.64 91.7853 1066.1 91.5853C1059.93 91.3986 1054.26 88.652 1050.28 84.2387C1045.33 94.612 1035.85 102.412 1024.25 105.052C1010.41 108.199 996.091 103.412 986.918 92.8787C984.078 97.2253 979.478 100.319 974.105 101.172C967.145 102.279 960.265 99.4253 956.118 93.9987C951.425 99.612 944.785 103.359 937.411 104.452C930.131 105.532 922.785 103.905 916.691 100.025C914.318 107.599 908.558 113.865 900.811 116.745C891.278 120.265 880.691 117.959 873.518 111.052C868.438 112.359 863.025 111.959 858.118 109.825C852.305 107.292 847.785 102.585 845.491 96.7853C828.838 99.5053 812.105 91.0786 804.505 75.652C800.611 75.5453 796.891 73.812 794.305 70.7587C790.971 66.8387 790.078 61.3853 791.998 56.5986C793.918 51.812 798.318 48.492 803.438 47.9453C806.238 47.652 808.985 48.212 811.371 49.4787C813.785 45.7987 817.691 43.252 822.171 42.5853C827.638 41.772 833.105 43.9053 836.571 48.132C841.558 41.3987 849.238 36.9587 857.798 36.132C865.011 35.4387 872.091 37.3853 877.851 41.3987C880.158 37.092 884.291 33.8787 889.318 32.8653C893.865 31.9587 898.438 32.9853 902.078 35.4787C904.011 31.9853 906.998 29.1053 910.705 27.3053C914.065 25.6653 917.758 25.052 921.358 25.4253C927.785 9.33201 944.011 -1.17471 961.851 0.105292C978.598 1.30529 992.438 12.612 997.411 27.9186C1002.8 24.332 1009.52 23.012 1016.05 24.4787C1022.24 25.8787 1027.5 29.6253 1030.88 34.7587C1033.74 31.3853 1037.46 28.7586 1041.72 27.172C1046.2 25.492 1050.98 25.0787 1055.58 25.8787C1061.61 13.812 1074.65 6.1453 1088.82 7.58531C1102.62 8.98531 1113.64 18.612 1117.41 31.1587C1125.41 29.7053 1133.8 31.5987 1140.49 36.6253C1146.41 41.0787 1150.36 47.492 1151.77 54.5186C1156.22 58.9853 1158.53 65.1453 1158.1 71.4386Z" fill="#345A41"/>
<path d="M909.75 92.968C911.382 94.652 912.916 95.68 914.458 96.3386C915.996 96.992 917.492 97.2573 918.986 97.2453C920.481 97.2173 921.969 96.92 923.49 96.2333C925.016 95.5413 926.525 94.484 928.128 92.7653C928.702 95.0706 927.825 97.6693 926.077 99.5333C924.337 101.415 921.704 102.565 919.045 102.576C916.389 102.616 913.734 101.525 911.953 99.6826C910.166 97.8586 909.233 95.2826 909.75 92.968Z" fill="#1B4343"/>
<path d="M1112 80.42C1113.64 82.104 1115.17 83.132 1116.71 83.7894C1118.25 84.444 1119.75 84.708 1121.24 84.696C1122.74 84.668 1124.22 84.372 1125.74 83.684C1127.27 82.992 1128.78 81.936 1130.38 80.2173C1130.96 82.5213 1130.08 85.1213 1128.33 86.984C1126.59 88.8666 1123.96 90.0173 1121.3 90.028C1118.64 90.068 1115.99 88.9773 1114.21 87.1347C1112.42 85.3093 1111.49 82.7347 1112 80.42Z" fill="#1B4343"/>
<path d="M1023.04 65.876C1026.29 71.2867 1030.37 75.4266 1035.08 78.2053C1039.78 80.9866 1045.02 82.3613 1050.26 82.3053C1055.49 82.2346 1060.7 80.7467 1065.33 77.864C1069.98 74.9814 1073.97 70.76 1077.11 65.2813C1077.23 71.64 1074.19 78.176 1069.21 82.8133C1064.25 87.4893 1057.33 90.2587 1050.35 90.3027C1043.37 90.4013 1036.39 87.7867 1031.33 83.2227C1026.25 78.6947 1023.07 72.232 1023.04 65.876Z" fill="#1B4343"/>
<path d="M972.242 80.572C974.834 83.6107 977.45 85.6147 980.19 86.92C982.921 88.22 985.697 88.7907 988.472 88.7653C991.245 88.7187 994.004 88.0893 996.702 86.7293C999.41 85.3627 1001.98 83.3094 1004.52 80.2174C1005.25 84.1894 1003.62 88.5574 1000.58 91.68C997.554 94.832 993.077 96.7413 988.56 96.7627C984.042 96.8307 979.529 95.02 976.432 91.9374C973.328 88.8814 971.61 84.556 972.242 80.572Z" fill="#1B4343"/>
<path d="M863.27 93.7893C861.631 96.584 858.846 98.68 855.695 99.8586C852.534 101.035 848.97 101.275 845.614 100.541C842.254 99.8226 839.11 98.124 836.722 95.7413C834.342 93.3626 832.678 90.2973 832.353 87.0706C834.679 89.3013 836.919 91.0773 839.313 92.4453C841.693 93.8146 844.177 94.7653 846.746 95.332C849.318 95.8906 851.975 96.056 854.71 95.7973C857.457 95.548 860.233 94.8586 863.27 93.7893Z" fill="#1B4343"/>
<path d="M1838.05 77.3186C1836.93 81.0786 1834.66 84.3586 1831.6 86.7186C1831.82 90.852 1831.08 95.0386 1829.36 98.9053C1826.18 106.025 1820.04 111.385 1812.54 113.559C1805.06 115.732 1797.01 114.492 1790.52 110.185C1789.05 109.199 1787.69 108.092 1786.45 106.825C1783.33 111.252 1778.58 114.439 1773.08 115.532C1767.8 116.572 1762.45 115.599 1757.97 112.959C1753.7 124.079 1744.21 132.545 1732.41 135.385C1720.52 138.265 1708.1 134.972 1699.21 126.879C1689.38 130.932 1678.32 131.412 1668.02 128.012C1659.48 125.199 1652.08 119.932 1646.66 113.012C1642.73 115.905 1637.81 117.292 1632.81 116.772C1627.58 116.225 1622.88 113.652 1619.62 109.759C1617.38 114.892 1613.29 119.065 1608.08 121.399C1602.38 123.959 1595.92 124.039 1590.22 121.692C1585.38 126.985 1578.74 130.439 1571.45 131.239C1563.48 132.119 1555.56 129.772 1549.41 124.825C1540.69 131.999 1528.44 133.705 1517.9 128.759C1509.52 124.839 1503.69 117.385 1501.61 108.812C1494.74 112.212 1486.25 111.532 1479.92 106.385C1474.52 101.999 1471.97 95.3987 1472.56 88.9453C1470.44 87.3587 1468.72 85.212 1467.65 82.652C1466.7 80.3853 1466.33 77.9986 1466.5 75.652C1474.1 91.0786 1490.84 99.5053 1507.49 96.7853C1509.78 102.585 1514.3 107.292 1520.12 109.825C1525.02 111.959 1530.44 112.359 1535.52 111.052C1542.69 117.959 1553.28 120.265 1562.81 116.745C1570.56 113.865 1576.32 107.599 1578.69 100.025C1584.78 103.905 1592.13 105.532 1599.41 104.452C1606.78 103.359 1613.42 99.612 1618.12 93.9986C1622.26 99.4253 1629.14 102.279 1636.1 101.172C1641.48 100.319 1646.08 97.2253 1648.92 92.8787C1658.09 103.412 1672.41 108.199 1686.25 105.052C1697.85 102.412 1707.33 94.612 1712.28 84.2387C1716.26 88.652 1721.93 91.3986 1728.1 91.5853C1734.64 91.7853 1740.78 89.1186 1745.09 84.492C1750.64 90.8253 1759.08 94.0653 1767.62 92.8387C1773.46 92.012 1778.68 89.1853 1782.52 85.052C1785.56 88.2386 1789.52 90.452 1793.92 91.3586C1800.11 92.6253 1806.52 91.1587 1811.53 87.3453C1816.56 83.5187 1819.68 77.7186 1820.1 71.4386C1820.53 65.1453 1818.22 58.9853 1813.77 54.5186C1817.4 53.172 1821.37 52.9987 1825.16 54.0253C1829.98 55.3587 1834.06 58.5853 1836.49 62.9587C1838.93 67.3453 1839.49 72.5186 1838.05 77.3186Z" fill="#1B4343"/>
<path d="M1820.1 71.4386C1819.68 77.7186 1816.56 83.5187 1811.53 87.3453C1806.52 91.1587 1800.1 92.6253 1793.92 91.3586C1789.52 90.452 1785.56 88.2386 1782.52 85.052C1778.68 89.1853 1773.46 92.012 1767.62 92.8387C1759.08 94.0653 1750.64 90.8253 1745.09 84.492C1740.78 89.1186 1734.64 91.7853 1728.1 91.5853C1721.93 91.3986 1716.26 88.652 1712.28 84.2387C1707.33 94.612 1697.85 102.412 1686.25 105.052C1672.41 108.199 1658.09 103.412 1648.92 92.8787C1646.08 97.2253 1641.48 100.319 1636.1 101.172C1629.14 102.279 1622.26 99.4253 1618.12 93.9987C1613.42 99.612 1606.78 103.359 1599.41 104.452C1592.13 105.532 1584.78 103.905 1578.69 100.025C1576.32 107.599 1570.56 113.865 1562.81 116.745C1553.28 120.265 1542.69 117.959 1535.52 111.052C1530.44 112.359 1525.02 111.959 1520.12 109.825C1514.3 107.292 1509.78 102.585 1507.49 96.7853C1490.84 99.5053 1474.1 91.0786 1466.5 75.652C1462.61 75.5453 1458.89 73.812 1456.3 70.7587C1452.97 66.8387 1452.08 61.3853 1454 56.5986C1455.92 51.812 1460.32 48.492 1465.44 47.9453C1468.24 47.652 1470.98 48.212 1473.37 49.4787C1475.78 45.7987 1479.69 43.252 1484.17 42.5853C1489.64 41.772 1495.1 43.9053 1498.57 48.132C1503.56 41.3987 1511.24 36.9587 1519.8 36.132C1527.01 35.4387 1534.09 37.3853 1539.85 41.3987C1542.16 37.092 1546.29 33.8787 1551.32 32.8653C1555.86 31.9587 1560.44 32.9853 1564.08 35.4787C1566.01 31.9853 1569 29.1053 1572.7 27.3053C1576.06 25.6653 1579.76 25.052 1583.36 25.4253C1589.78 9.33201 1606.01 -1.17471 1623.85 0.105292C1640.6 1.30529 1654.44 12.612 1659.41 27.9186C1664.8 24.332 1671.52 23.012 1678.05 24.4787C1684.24 25.8787 1689.5 29.6253 1692.88 34.7587C1695.74 31.3853 1699.46 28.7586 1703.72 27.172C1708.2 25.492 1712.98 25.0787 1717.58 25.8787C1723.61 13.812 1736.65 6.1453 1750.82 7.58531C1764.62 8.98531 1775.64 18.612 1779.41 31.1587C1787.41 29.7053 1795.8 31.5987 1802.49 36.6253C1808.41 41.0787 1812.36 47.492 1813.77 54.5186C1818.22 58.9853 1820.53 65.1453 1820.1 71.4386Z" fill="#345A41"/>
<path d="M1571.75 92.968C1573.38 94.652 1574.92 95.68 1576.46 96.3386C1578 96.992 1579.49 97.2573 1580.99 97.2453C1582.48 97.2173 1583.97 96.92 1585.49 96.2333C1587.02 95.5413 1588.53 94.484 1590.13 92.7653C1590.7 95.0706 1589.83 97.6693 1588.08 99.5333C1586.34 101.415 1583.7 102.565 1581.05 102.576C1578.39 102.616 1575.73 101.525 1573.95 99.6826C1572.17 97.8586 1571.23 95.2826 1571.75 92.968Z" fill="#1B4343"/>
<path d="M1774 80.42C1775.64 82.104 1777.17 83.132 1778.71 83.7894C1780.25 84.444 1781.75 84.708 1783.24 84.696C1784.74 84.668 1786.22 84.372 1787.74 83.684C1789.27 82.992 1790.78 81.936 1792.38 80.2173C1792.96 82.5213 1792.08 85.1213 1790.33 86.984C1788.59 88.8666 1785.96 90.0173 1783.3 90.028C1780.64 90.068 1777.99 88.9773 1776.21 87.1347C1774.42 85.3093 1773.49 82.7347 1774 80.42Z" fill="#1B4343"/>
<path d="M1685.04 65.876C1688.29 71.2867 1692.37 75.4266 1697.08 78.2053C1701.78 80.9866 1707.02 82.3613 1712.26 82.3053C1717.49 82.2346 1722.7 80.7467 1727.33 77.864C1731.98 74.9814 1735.97 70.76 1739.11 65.2813C1739.23 71.64 1736.19 78.176 1731.21 82.8133C1726.25 87.4893 1719.33 90.2587 1712.35 90.3027C1705.37 90.4013 1698.39 87.7867 1693.33 83.2227C1688.25 78.6947 1685.07 72.232 1685.04 65.876Z" fill="#1B4343"/>
<path d="M1634.24 80.572C1636.83 83.6107 1639.45 85.6147 1642.19 86.92C1644.92 88.22 1647.7 88.7907 1650.47 88.7653C1653.24 88.7187 1656 88.0893 1658.7 86.7293C1661.41 85.3627 1663.98 83.3094 1666.52 80.2174C1667.25 84.1894 1665.62 88.5574 1662.58 91.68C1659.55 94.832 1655.08 96.7413 1650.56 96.7627C1646.04 96.8307 1641.53 95.02 1638.43 91.9374C1635.33 88.8814 1633.61 84.556 1634.24 80.572Z" fill="#1B4343"/>
<path d="M1525.27 93.7893C1523.63 96.584 1520.85 98.68 1517.7 99.8587C1514.53 101.035 1510.97 101.275 1507.61 100.541C1504.25 99.8227 1501.11 98.124 1498.72 95.7414C1496.34 93.3627 1494.68 90.2974 1494.35 87.0707C1496.68 89.3014 1498.92 91.0774 1501.31 92.4454C1503.69 93.8147 1506.18 94.7654 1508.75 95.332C1511.32 95.8907 1513.98 96.056 1516.71 95.7974C1519.46 95.548 1522.23 94.8587 1525.27 93.7893Z" fill="#1B4343"/>
<path d="M2012.05 77.3186C2010.93 81.0786 2008.66 84.3586 2005.6 86.7186C2005.82 90.852 2005.08 95.0386 2003.36 98.9053C2000.18 106.025 1994.04 111.385 1986.54 113.559C1979.06 115.732 1971.01 114.492 1964.52 110.185C1963.05 109.199 1961.69 108.092 1960.45 106.825C1957.33 111.252 1952.58 114.439 1947.08 115.532C1941.8 116.572 1936.45 115.599 1931.97 112.959C1927.7 124.079 1918.21 132.545 1906.41 135.385C1894.52 138.265 1882.1 134.972 1873.21 126.879C1863.38 130.932 1852.32 131.412 1842.02 128.012C1833.48 125.199 1826.08 119.932 1820.66 113.012C1816.73 115.905 1811.81 117.292 1806.81 116.772C1801.58 116.225 1796.88 113.652 1793.62 109.759C1791.38 114.892 1787.29 119.065 1782.08 121.399C1776.38 123.959 1769.92 124.039 1764.22 121.692C1759.38 126.985 1752.74 130.439 1745.45 131.239C1737.48 132.119 1729.56 129.772 1723.41 124.825C1714.69 131.999 1702.44 133.705 1691.9 128.759C1683.52 124.839 1677.69 117.385 1675.61 108.812C1668.74 112.212 1660.25 111.532 1653.92 106.385C1648.52 101.999 1645.97 95.3987 1646.56 88.9453C1644.44 87.3587 1642.72 85.212 1641.65 82.652C1640.7 80.3853 1640.33 77.9986 1640.5 75.652C1648.1 91.0786 1664.84 99.5053 1681.49 96.7853C1683.78 102.585 1688.3 107.292 1694.12 109.825C1699.02 111.959 1704.44 112.359 1709.52 111.052C1716.69 117.959 1727.28 120.265 1736.81 116.745C1744.56 113.865 1750.32 107.599 1752.69 100.025C1758.78 103.905 1766.13 105.532 1773.41 104.452C1780.78 103.359 1787.42 99.612 1792.12 93.9986C1796.26 99.4253 1803.14 102.279 1810.1 101.172C1815.48 100.319 1820.08 97.2253 1822.92 92.8787C1832.09 103.412 1846.41 108.199 1860.25 105.052C1871.85 102.412 1881.33 94.612 1886.28 84.2387C1890.26 88.652 1895.93 91.3986 1902.1 91.5853C1908.64 91.7853 1914.78 89.1186 1919.09 84.492C1924.64 90.8253 1933.08 94.0653 1941.62 92.8387C1947.46 92.012 1952.68 89.1853 1956.52 85.052C1959.56 88.2386 1963.52 90.452 1967.92 91.3586C1974.11 92.6253 1980.52 91.1587 1985.53 87.3453C1990.56 83.5187 1993.68 77.7186 1994.1 71.4386C1994.53 65.1453 1992.22 58.9853 1987.77 54.5186C1991.4 53.172 1995.37 52.9987 1999.16 54.0253C2003.98 55.3587 2008.06 58.5853 2010.49 62.9587C2012.93 67.3453 2013.49 72.5186 2012.05 77.3186Z" fill="#1B4343"/>
<path d="M1994.1 71.4386C1993.68 77.7186 1990.56 83.5187 1985.53 87.3453C1980.52 91.1587 1974.1 92.6253 1967.92 91.3586C1963.52 90.452 1959.56 88.2386 1956.52 85.052C1952.68 89.1853 1947.46 92.012 1941.62 92.8387C1933.08 94.0653 1924.64 90.8253 1919.09 84.492C1914.78 89.1186 1908.64 91.7853 1902.1 91.5853C1895.93 91.3986 1890.26 88.652 1886.28 84.2387C1881.33 94.612 1871.85 102.412 1860.25 105.052C1846.41 108.199 1832.09 103.412 1822.92 92.8787C1820.08 97.2253 1815.48 100.319 1810.1 101.172C1803.14 102.279 1796.26 99.4253 1792.12 93.9987C1787.42 99.612 1780.78 103.359 1773.41 104.452C1766.13 105.532 1758.78 103.905 1752.69 100.025C1750.32 107.599 1744.56 113.865 1736.81 116.745C1727.28 120.265 1716.69 117.959 1709.52 111.052C1704.44 112.359 1699.02 111.959 1694.12 109.825C1688.3 107.292 1683.78 102.585 1681.49 96.7853C1664.84 99.5053 1648.1 91.0786 1640.5 75.652C1636.61 75.5453 1632.89 73.812 1630.3 70.7587C1626.97 66.8387 1626.08 61.3853 1628 56.5986C1629.92 51.812 1634.32 48.492 1639.44 47.9453C1642.24 47.652 1644.98 48.212 1647.37 49.4787C1649.78 45.7987 1653.69 43.252 1658.17 42.5853C1663.64 41.772 1669.1 43.9053 1672.57 48.132C1677.56 41.3987 1685.24 36.9587 1693.8 36.132C1701.01 35.4387 1708.09 37.3853 1713.85 41.3987C1716.16 37.092 1720.29 33.8787 1725.32 32.8653C1729.86 31.9587 1734.44 32.9853 1738.08 35.4787C1740.01 31.9853 1743 29.1053 1746.7 27.3053C1750.06 25.6653 1753.76 25.052 1757.36 25.4253C1763.78 9.33201 1780.01 -1.17471 1797.85 0.105292C1814.6 1.30529 1828.44 12.612 1833.41 27.9186C1838.8 24.332 1845.52 23.012 1852.05 24.4787C1858.24 25.8787 1863.5 29.6253 1866.88 34.7587C1869.74 31.3853 1873.46 28.7586 1877.72 27.172C1882.2 25.492 1886.98 25.0787 1891.58 25.8787C1897.61 13.812 1910.65 6.1453 1924.82 7.58531C1938.62 8.98531 1949.64 18.612 1953.41 31.1587C1961.41 29.7053 1969.8 31.5987 1976.49 36.6253C1982.41 41.0787 1986.36 47.492 1987.77 54.5186C1992.22 58.9853 1994.53 65.1453 1994.1 71.4386Z" fill="#345A41"/>
<path d="M1745.75 92.968C1747.38 94.652 1748.92 95.68 1750.46 96.3386C1752 96.992 1753.49 97.2573 1754.99 97.2453C1756.48 97.2173 1757.97 96.92 1759.49 96.2333C1761.02 95.5413 1762.53 94.484 1764.13 92.7653C1764.7 95.0706 1763.83 97.6693 1762.08 99.5333C1760.34 101.415 1757.7 102.565 1755.05 102.576C1752.39 102.616 1749.73 101.525 1747.95 99.6826C1746.17 97.8586 1745.23 95.2826 1745.75 92.968Z" fill="#1B4343"/>
<path d="M1859.04 65.876C1862.29 71.2867 1866.37 75.4266 1871.08 78.2053C1875.78 80.9866 1881.02 82.3613 1886.26 82.3053C1891.49 82.2346 1896.7 80.7467 1901.33 77.864C1905.98 74.9814 1909.97 70.76 1913.11 65.2813C1913.23 71.64 1910.19 78.176 1905.21 82.8133C1900.25 87.4893 1893.33 90.2587 1886.35 90.3027C1879.37 90.4013 1872.39 87.7867 1867.33 83.2227C1862.25 78.6947 1859.07 72.232 1859.04 65.876Z" fill="#1B4343"/>
<path d="M1808.24 80.572C1810.83 83.6107 1813.45 85.6147 1816.19 86.92C1818.92 88.22 1821.7 88.7907 1824.47 88.7653C1827.24 88.7187 1830 88.0893 1832.7 86.7293C1835.41 85.3627 1837.98 83.3094 1840.52 80.2174C1841.25 84.1894 1839.62 88.5574 1836.58 91.68C1833.55 94.832 1829.08 96.7413 1824.56 96.7627C1820.04 96.8307 1815.53 95.02 1812.43 91.9374C1809.33 88.8814 1807.61 84.556 1808.24 80.572Z" fill="#1B4343"/>
<path d="M1699.27 93.7893C1697.63 96.584 1694.85 98.68 1691.7 99.8587C1688.53 101.035 1684.97 101.275 1681.61 100.541C1678.25 99.8227 1675.11 98.124 1672.72 95.7414C1670.34 93.3627 1668.68 90.2974 1668.35 87.0707C1670.68 89.3014 1672.92 91.0774 1675.31 92.4454C1677.69 93.8147 1680.18 94.7654 1682.75 95.332C1685.32 95.8907 1687.98 96.056 1690.71 95.7974C1693.46 95.548 1696.23 94.8587 1699.27 93.7893Z" fill="#1B4343"/>
<path d="M1400.05 77.3186C1398.93 81.0786 1396.66 84.3586 1393.6 86.7186C1393.82 90.852 1393.08 95.0386 1391.36 98.9053C1388.18 106.025 1382.04 111.385 1374.54 113.559C1367.06 115.732 1359.01 114.492 1352.52 110.185C1351.05 109.199 1349.69 108.092 1348.45 106.825C1345.33 111.252 1340.58 114.439 1335.08 115.532C1329.8 116.572 1324.45 115.599 1319.97 112.959C1315.7 124.079 1306.21 132.545 1294.41 135.385C1282.52 138.265 1270.1 134.972 1261.21 126.879C1251.38 130.932 1240.32 131.412 1230.02 128.012C1221.48 125.199 1214.08 119.932 1208.66 113.012C1204.73 115.905 1199.81 117.292 1194.81 116.772C1189.58 116.225 1184.88 113.652 1181.62 109.759C1179.38 114.892 1175.29 119.065 1170.08 121.399C1164.38 123.959 1157.92 124.039 1152.22 121.692C1147.38 126.985 1140.74 130.439 1133.45 131.239C1125.48 132.119 1117.56 129.772 1111.41 124.825C1102.69 131.999 1090.44 133.705 1079.9 128.759C1071.52 124.839 1065.69 117.385 1063.61 108.812C1056.74 112.212 1048.25 111.532 1041.92 106.385C1036.52 101.999 1033.97 95.3987 1034.56 88.9453C1032.44 87.3587 1030.72 85.212 1029.65 82.652C1028.7 80.3853 1028.33 77.9986 1028.5 75.652C1036.1 91.0786 1052.84 99.5053 1069.49 96.7853C1071.78 102.585 1076.3 107.292 1082.12 109.825C1087.02 111.959 1092.44 112.359 1097.52 111.052C1104.69 117.959 1115.28 120.265 1124.81 116.745C1132.56 113.865 1138.32 107.599 1140.69 100.025C1146.78 103.905 1154.13 105.532 1161.41 104.452C1168.78 103.359 1175.42 99.612 1180.12 93.9986C1184.26 99.4253 1191.14 102.279 1198.1 101.172C1203.48 100.319 1208.08 97.2253 1210.92 92.8787C1220.09 103.412 1234.41 108.199 1248.25 105.052C1259.85 102.412 1269.33 94.612 1274.28 84.2387C1278.26 88.652 1283.93 91.3986 1290.1 91.5853C1296.64 91.7853 1302.78 89.1186 1307.09 84.492C1312.64 90.8253 1321.08 94.0653 1329.62 92.8387C1335.46 92.012 1340.68 89.1853 1344.52 85.052C1347.56 88.2386 1351.52 90.452 1355.92 91.3586C1362.11 92.6253 1368.52 91.1587 1373.53 87.3453C1378.56 83.5187 1381.68 77.7186 1382.1 71.4386C1382.53 65.1453 1380.22 58.9853 1375.77 54.5186C1379.4 53.172 1383.37 52.9987 1387.16 54.0253C1391.98 55.3587 1396.06 58.5853 1398.49 62.9587C1400.93 67.3453 1401.49 72.5186 1400.05 77.3186Z" fill="#1B4343"/>
<path d="M1382.1 71.4386C1381.68 77.7186 1378.56 83.5187 1373.53 87.3453C1368.52 91.1587 1362.1 92.6253 1355.92 91.3586C1351.52 90.452 1347.56 88.2386 1344.52 85.052C1340.68 89.1853 1335.46 92.012 1329.62 92.8387C1321.08 94.0653 1312.64 90.8253 1307.09 84.492C1302.78 89.1186 1296.64 91.7853 1290.1 91.5853C1283.93 91.3986 1278.26 88.652 1274.28 84.2387C1269.33 94.612 1259.85 102.412 1248.25 105.052C1234.41 108.199 1220.09 103.412 1210.92 92.8787C1208.08 97.2253 1203.48 100.319 1198.1 101.172C1191.14 102.279 1184.26 99.4253 1180.12 93.9987C1175.42 99.612 1168.78 103.359 1161.41 104.452C1154.13 105.532 1146.78 103.905 1140.69 100.025C1138.32 107.599 1132.56 113.865 1124.81 116.745C1115.28 120.265 1104.69 117.959 1097.52 111.052C1092.44 112.359 1087.02 111.959 1082.12 109.825C1076.3 107.292 1071.78 102.585 1069.49 96.7853C1052.84 99.5053 1036.1 91.0786 1028.5 75.652C1024.61 75.5453 1020.89 73.812 1018.3 70.7587C1014.97 66.8387 1014.08 61.3853 1016 56.5986C1017.92 51.812 1022.32 48.492 1027.44 47.9453C1030.24 47.652 1032.98 48.212 1035.37 49.4787C1037.78 45.7987 1041.69 43.252 1046.17 42.5853C1051.64 41.772 1057.1 43.9053 1060.57 48.132C1065.56 41.3987 1073.24 36.9587 1081.8 36.132C1089.01 35.4387 1096.09 37.3853 1101.85 41.3987C1104.16 37.092 1108.29 33.8787 1113.32 32.8653C1117.86 31.9587 1122.44 32.9853 1126.08 35.4787C1128.01 31.9853 1131 29.1053 1134.7 27.3053C1138.06 25.6653 1141.76 25.052 1145.36 25.4253C1151.78 9.33201 1168.01 -1.17471 1185.85 0.105292C1202.6 1.30529 1216.44 12.612 1221.41 27.9186C1226.8 24.332 1233.52 23.012 1240.05 24.4787C1246.24 25.8787 1251.5 29.6253 1254.88 34.7587C1257.74 31.3853 1261.46 28.7586 1265.72 27.172C1270.2 25.492 1274.98 25.0787 1279.58 25.8787C1285.61 13.812 1298.65 6.1453 1312.82 7.58531C1326.62 8.98531 1337.64 18.612 1341.41 31.1587C1349.41 29.7053 1357.8 31.5987 1364.49 36.6253C1370.41 41.0787 1374.36 47.492 1375.77 54.5186C1380.22 58.9853 1382.53 65.1453 1382.1 71.4386Z" fill="#345A41"/>
<path d="M1133.75 92.968C1135.38 94.652 1136.92 95.68 1138.46 96.3386C1140 96.992 1141.49 97.2573 1142.99 97.2453C1144.48 97.2173 1145.97 96.92 1147.49 96.2333C1149.02 95.5413 1150.53 94.484 1152.13 92.7653C1152.7 95.0706 1151.83 97.6693 1150.08 99.5333C1148.34 101.415 1145.7 102.565 1143.05 102.576C1140.39 102.616 1137.73 101.525 1135.95 99.6826C1134.17 97.8586 1133.23 95.2826 1133.75 92.968Z" fill="#1B4343"/>
<path d="M1336 80.42C1337.64 82.104 1339.17 83.132 1340.71 83.7894C1342.25 84.444 1343.75 84.708 1345.24 84.696C1346.74 84.668 1348.22 84.372 1349.74 83.684C1351.27 82.992 1352.78 81.936 1354.38 80.2173C1354.96 82.5213 1354.08 85.1213 1352.33 86.984C1350.59 88.8666 1347.96 90.0173 1345.3 90.028C1342.64 90.068 1339.99 88.9773 1338.21 87.1347C1336.42 85.3093 1335.49 82.7347 1336 80.42Z" fill="#1B4343"/>
<path d="M1247.04 65.876C1250.29 71.2867 1254.37 75.4266 1259.08 78.2053C1263.78 80.9866 1269.02 82.3613 1274.26 82.3053C1279.49 82.2346 1284.7 80.7467 1289.33 77.864C1293.98 74.9814 1297.97 70.76 1301.11 65.2813C1301.23 71.64 1298.19 78.176 1293.21 82.8133C1288.25 87.4893 1281.33 90.2587 1274.35 90.3027C1267.37 90.4013 1260.39 87.7867 1255.33 83.2227C1250.25 78.6947 1247.07 72.232 1247.04 65.876Z" fill="#1B4343"/>
<path d="M1196.24 80.572C1198.83 83.6107 1201.45 85.6147 1204.19 86.92C1206.92 88.22 1209.7 88.7907 1212.47 88.7653C1215.24 88.7187 1218 88.0893 1220.7 86.7293C1223.41 85.3627 1225.98 83.3094 1228.52 80.2174C1229.25 84.1894 1227.62 88.5574 1224.58 91.68C1221.55 94.832 1217.08 96.7413 1212.56 96.7627C1208.04 96.8307 1203.53 95.02 1200.43 91.9374C1197.33 88.8814 1195.61 84.556 1196.24 80.572Z" fill="#1B4343"/>
<path d="M1087.27 93.7893C1085.63 96.584 1082.85 98.68 1079.7 99.8587C1076.53 101.035 1072.97 101.275 1069.61 100.541C1066.25 99.8227 1063.11 98.124 1060.72 95.7414C1058.34 93.3627 1056.68 90.2974 1056.35 87.0707C1058.68 89.3014 1060.92 91.0774 1063.31 92.4454C1065.69 93.8147 1068.18 94.7654 1070.75 95.332C1073.32 95.8907 1075.98 96.056 1078.71 95.7974C1081.46 95.548 1084.23 94.8587 1087.27 93.7893Z" fill="#1B4343"/>
<path d="M1574.05 77.3186C1572.93 81.0786 1570.66 84.3586 1567.6 86.7186C1567.82 90.852 1567.08 95.0386 1565.36 98.9053C1562.18 106.025 1556.04 111.385 1548.54 113.559C1541.06 115.732 1533.01 114.492 1526.52 110.185C1525.05 109.199 1523.69 108.092 1522.45 106.825C1519.33 111.252 1514.58 114.439 1509.08 115.532C1503.8 116.572 1498.45 115.599 1493.97 112.959C1489.7 124.079 1480.21 132.545 1468.41 135.385C1456.52 138.265 1444.1 134.972 1435.21 126.879C1425.38 130.932 1414.32 131.412 1404.02 128.012C1395.48 125.199 1388.08 119.932 1382.66 113.012C1378.73 115.905 1373.81 117.292 1368.81 116.772C1363.58 116.225 1358.88 113.652 1355.62 109.759C1353.38 114.892 1349.29 119.065 1344.08 121.399C1338.38 123.959 1331.92 124.039 1326.22 121.692C1321.38 126.985 1314.74 130.439 1307.45 131.239C1299.48 132.119 1291.56 129.772 1285.41 124.825C1276.69 131.999 1264.44 133.705 1253.9 128.759C1245.52 124.839 1239.69 117.385 1237.61 108.812C1230.74 112.212 1222.25 111.532 1215.92 106.385C1210.52 101.999 1207.97 95.3987 1208.56 88.9453C1206.44 87.3587 1204.72 85.212 1203.65 82.652C1202.7 80.3853 1202.33 77.9986 1202.5 75.652C1210.1 91.0786 1226.84 99.5053 1243.49 96.7853C1245.78 102.585 1250.3 107.292 1256.12 109.825C1261.02 111.959 1266.44 112.359 1271.52 111.052C1278.69 117.959 1289.28 120.265 1298.81 116.745C1306.56 113.865 1312.32 107.599 1314.69 100.025C1320.78 103.905 1328.13 105.532 1335.41 104.452C1342.78 103.359 1349.42 99.612 1354.12 93.9986C1358.26 99.4253 1365.14 102.279 1372.1 101.172C1377.48 100.319 1382.08 97.2253 1384.92 92.8787C1394.09 103.412 1408.41 108.199 1422.25 105.052C1433.85 102.412 1443.33 94.612 1448.28 84.2387C1452.26 88.652 1457.93 91.3986 1464.1 91.5853C1470.64 91.7853 1476.78 89.1186 1481.09 84.492C1486.64 90.8253 1495.08 94.0653 1503.62 92.8387C1509.46 92.012 1514.68 89.1853 1518.52 85.052C1521.56 88.2386 1525.52 90.452 1529.92 91.3586C1536.11 92.6253 1542.52 91.1587 1547.53 87.3453C1552.56 83.5187 1555.68 77.7186 1556.1 71.4386C1556.53 65.1453 1554.22 58.9853 1549.77 54.5186C1553.4 53.172 1557.37 52.9987 1561.16 54.0253C1565.98 55.3587 1570.06 58.5853 1572.49 62.9587C1574.93 67.3453 1575.49 72.5186 1574.05 77.3186Z" fill="#1B4343"/>
<path d="M1556.1 71.4386C1555.68 77.7186 1552.56 83.5187 1547.53 87.3453C1542.52 91.1587 1536.1 92.6253 1529.92 91.3586C1525.52 90.452 1521.56 88.2386 1518.52 85.052C1514.68 89.1853 1509.46 92.012 1503.62 92.8387C1495.08 94.0653 1486.64 90.8253 1481.09 84.492C1476.78 89.1186 1470.64 91.7853 1464.1 91.5853C1457.93 91.3986 1452.26 88.652 1448.28 84.2387C1443.33 94.612 1433.85 102.412 1422.25 105.052C1408.41 108.199 1394.09 103.412 1384.92 92.8787C1382.08 97.2253 1377.48 100.319 1372.1 101.172C1365.14 102.279 1358.26 99.4253 1354.12 93.9987C1349.42 99.612 1342.78 103.359 1335.41 104.452C1328.13 105.532 1320.78 103.905 1314.69 100.025C1312.32 107.599 1306.56 113.865 1298.81 116.745C1289.28 120.265 1278.69 117.959 1271.52 111.052C1266.44 112.359 1261.02 111.959 1256.12 109.825C1250.3 107.292 1245.78 102.585 1243.49 96.7853C1226.84 99.5053 1210.1 91.0786 1202.5 75.652C1198.61 75.5453 1194.89 73.812 1192.3 70.7587C1188.97 66.8387 1188.08 61.3853 1190 56.5986C1191.92 51.812 1196.32 48.492 1201.44 47.9453C1204.24 47.652 1206.98 48.212 1209.37 49.4787C1211.78 45.7987 1215.69 43.252 1220.17 42.5853C1225.64 41.772 1231.1 43.9053 1234.57 48.132C1239.56 41.3987 1247.24 36.9587 1255.8 36.132C1263.01 35.4387 1270.09 37.3853 1275.85 41.3987C1278.16 37.092 1282.29 33.8787 1287.32 32.8653C1291.86 31.9587 1296.44 32.9853 1300.08 35.4787C1302.01 31.9853 1305 29.1053 1308.7 27.3053C1312.06 25.6653 1315.76 25.052 1319.36 25.4253C1325.78 9.33201 1342.01 -1.17471 1359.85 0.105292C1376.6 1.30529 1390.44 12.612 1395.41 27.9186C1400.8 24.332 1407.52 23.012 1414.05 24.4787C1420.24 25.8787 1425.5 29.6253 1428.88 34.7587C1431.74 31.3853 1435.46 28.7586 1439.72 27.172C1444.2 25.492 1448.98 25.0787 1453.58 25.8787C1459.61 13.812 1472.65 6.1453 1486.82 7.58531C1500.62 8.98531 1511.64 18.612 1515.41 31.1587C1523.41 29.7053 1531.8 31.5987 1538.49 36.6253C1544.41 41.0787 1548.36 47.492 1549.77 54.5186C1554.22 58.9853 1556.53 65.1453 1556.1 71.4386Z" fill="#345A41"/>
<path d="M1307.75 92.968C1309.38 94.652 1310.92 95.68 1312.46 96.3386C1314 96.992 1315.49 97.2573 1316.99 97.2453C1318.48 97.2173 1319.97 96.92 1321.49 96.2333C1323.02 95.5413 1324.53 94.484 1326.13 92.7653C1326.7 95.0706 1325.83 97.6693 1324.08 99.5333C1322.34 101.415 1319.7 102.565 1317.05 102.576C1314.39 102.616 1311.73 101.525 1309.95 99.6826C1308.17 97.8586 1307.23 95.2826 1307.75 92.968Z" fill="#1B4343"/>
<path d="M1510 80.42C1511.64 82.104 1513.17 83.132 1514.71 83.7894C1516.25 84.444 1517.75 84.708 1519.24 84.696C1520.74 84.668 1522.22 84.372 1523.74 83.684C1525.27 82.992 1526.78 81.936 1528.38 80.2173C1528.96 82.5213 1528.08 85.1213 1526.33 86.984C1524.59 88.8666 1521.96 90.0173 1519.3 90.028C1516.64 90.068 1513.99 88.9773 1512.21 87.1347C1510.42 85.3093 1509.49 82.7347 1510 80.42Z" fill="#1B4343"/>
<path d="M1421.04 65.876C1424.29 71.2867 1428.37 75.4266 1433.08 78.2053C1437.78 80.9866 1443.02 82.3613 1448.26 82.3053C1453.49 82.2346 1458.7 80.7467 1463.33 77.864C1467.98 74.9814 1471.97 70.76 1475.11 65.2813C1475.23 71.64 1472.19 78.176 1467.21 82.8133C1462.25 87.4893 1455.33 90.2587 1448.35 90.3027C1441.37 90.4013 1434.39 87.7867 1429.33 83.2227C1424.25 78.6947 1421.07 72.232 1421.04 65.876Z" fill="#1B4343"/>
<path d="M1370.24 80.572C1372.83 83.6107 1375.45 85.6147 1378.19 86.92C1380.92 88.22 1383.7 88.7907 1386.47 88.7653C1389.24 88.7187 1392 88.0893 1394.7 86.7293C1397.41 85.3627 1399.98 83.3094 1402.52 80.2174C1403.25 84.1894 1401.62 88.5574 1398.58 91.68C1395.55 94.832 1391.08 96.7413 1386.56 96.7627C1382.04 96.8307 1377.53 95.02 1374.43 91.9374C1371.33 88.8814 1369.61 84.556 1370.24 80.572Z" fill="#1B4343"/>
<path d="M1261.27 93.7893C1259.63 96.584 1256.85 98.68 1253.7 99.8587C1250.53 101.035 1246.97 101.275 1243.61 100.541C1240.25 99.8227 1237.11 98.124 1234.72 95.7414C1232.34 93.3627 1230.68 90.2974 1230.35 87.0707C1232.68 89.3014 1234.92 91.0774 1237.31 92.4454C1239.69 93.8147 1242.18 94.7654 1244.75 95.332C1247.32 95.8907 1249.98 96.056 1252.71 95.7974C1255.46 95.548 1258.23 94.8587 1261.27 93.7893Z" fill="#1B4343"/>
</svg>
